%TF.GenerationSoftware,KiCad,Pcbnew,10.0.0*%
%TF.CreationDate,2026-05-26T01:41:41-05:00*%
%TF.ProjectId,14ch_dispensing_system,31346368-5f64-4697-9370-656e73696e67,0*%
%TF.SameCoordinates,Original*%
%TF.FileFunction,Legend,Top*%
%TF.FilePolarity,Positive*%
%FSLAX46Y46*%
G04 Gerber Fmt 4.6, Leading zero omitted, Abs format (unit mm)*
G04 Created by KiCad (PCBNEW 10.0.0) date 2026-05-26 01:41:41*
%MOMM*%
%LPD*%
G01*
G04 APERTURE LIST*
%ADD10C,0.150000*%
G04 APERTURE END LIST*
D10*
X99238095Y-69454819D02*
X99238095Y-70264342D01*
X99238095Y-70264342D02*
X99285714Y-70359580D01*
X99285714Y-70359580D02*
X99333333Y-70407200D01*
X99333333Y-70407200D02*
X99428571Y-70454819D01*
X99428571Y-70454819D02*
X99619047Y-70454819D01*
X99619047Y-70454819D02*
X99714285Y-70407200D01*
X99714285Y-70407200D02*
X99761904Y-70359580D01*
X99761904Y-70359580D02*
X99809523Y-70264342D01*
X99809523Y-70264342D02*
X99809523Y-69454819D01*
X100809523Y-70454819D02*
X100238095Y-70454819D01*
X100523809Y-70454819D02*
X100523809Y-69454819D01*
X100523809Y-69454819D02*
X100428571Y-69597676D01*
X100428571Y-69597676D02*
X100333333Y-69692914D01*
X100333333Y-69692914D02*
X100238095Y-69740533D01*
X159666666Y-69454819D02*
X159666666Y-70169104D01*
X159666666Y-70169104D02*
X159619047Y-70311961D01*
X159619047Y-70311961D02*
X159523809Y-70407200D01*
X159523809Y-70407200D02*
X159380952Y-70454819D01*
X159380952Y-70454819D02*
X159285714Y-70454819D01*
X160095238Y-69550057D02*
X160142857Y-69502438D01*
X160142857Y-69502438D02*
X160238095Y-69454819D01*
X160238095Y-69454819D02*
X160476190Y-69454819D01*
X160476190Y-69454819D02*
X160571428Y-69502438D01*
X160571428Y-69502438D02*
X160619047Y-69550057D01*
X160619047Y-69550057D02*
X160666666Y-69645295D01*
X160666666Y-69645295D02*
X160666666Y-69740533D01*
X160666666Y-69740533D02*
X160619047Y-69883390D01*
X160619047Y-69883390D02*
X160047619Y-70454819D01*
X160047619Y-70454819D02*
X160666666Y-70454819D01*
X24666666Y-39454819D02*
X24666666Y-40169104D01*
X24666666Y-40169104D02*
X24619047Y-40311961D01*
X24619047Y-40311961D02*
X24523809Y-40407200D01*
X24523809Y-40407200D02*
X24380952Y-40454819D01*
X24380952Y-40454819D02*
X24285714Y-40454819D01*
X25619047Y-39454819D02*
X25142857Y-39454819D01*
X25142857Y-39454819D02*
X25095238Y-39931009D01*
X25095238Y-39931009D02*
X25142857Y-39883390D01*
X25142857Y-39883390D02*
X25238095Y-39835771D01*
X25238095Y-39835771D02*
X25476190Y-39835771D01*
X25476190Y-39835771D02*
X25571428Y-39883390D01*
X25571428Y-39883390D02*
X25619047Y-39931009D01*
X25619047Y-39931009D02*
X25666666Y-40026247D01*
X25666666Y-40026247D02*
X25666666Y-40264342D01*
X25666666Y-40264342D02*
X25619047Y-40359580D01*
X25619047Y-40359580D02*
X25571428Y-40407200D01*
X25571428Y-40407200D02*
X25476190Y-40454819D01*
X25476190Y-40454819D02*
X25238095Y-40454819D01*
X25238095Y-40454819D02*
X25142857Y-40407200D01*
X25142857Y-40407200D02*
X25095238Y-40359580D01*
X20380952Y-9454819D02*
X20380952Y-10169104D01*
X20380952Y-10169104D02*
X20333333Y-10311961D01*
X20333333Y-10311961D02*
X20238095Y-10407200D01*
X20238095Y-10407200D02*
X20095238Y-10454819D01*
X20095238Y-10454819D02*
X20000000Y-10454819D01*
X20619048Y-10550057D02*
X21380952Y-10550057D01*
X21619048Y-10454819D02*
X21619048Y-9454819D01*
X21619048Y-9454819D02*
X21952381Y-10169104D01*
X21952381Y-10169104D02*
X22285714Y-9454819D01*
X22285714Y-9454819D02*
X22285714Y-10454819D01*
X22952381Y-9454819D02*
X23142857Y-9454819D01*
X23142857Y-9454819D02*
X23238095Y-9502438D01*
X23238095Y-9502438D02*
X23333333Y-9597676D01*
X23333333Y-9597676D02*
X23380952Y-9788152D01*
X23380952Y-9788152D02*
X23380952Y-10121485D01*
X23380952Y-10121485D02*
X23333333Y-10311961D01*
X23333333Y-10311961D02*
X23238095Y-10407200D01*
X23238095Y-10407200D02*
X23142857Y-10454819D01*
X23142857Y-10454819D02*
X22952381Y-10454819D01*
X22952381Y-10454819D02*
X22857143Y-10407200D01*
X22857143Y-10407200D02*
X22761905Y-10311961D01*
X22761905Y-10311961D02*
X22714286Y-10121485D01*
X22714286Y-10121485D02*
X22714286Y-9788152D01*
X22714286Y-9788152D02*
X22761905Y-9597676D01*
X22761905Y-9597676D02*
X22857143Y-9502438D01*
X22857143Y-9502438D02*
X22952381Y-9454819D01*
X23666667Y-9454819D02*
X24238095Y-9454819D01*
X23952381Y-10454819D02*
X23952381Y-9454819D01*
X24761905Y-9454819D02*
X24952381Y-9454819D01*
X24952381Y-9454819D02*
X25047619Y-9502438D01*
X25047619Y-9502438D02*
X25142857Y-9597676D01*
X25142857Y-9597676D02*
X25190476Y-9788152D01*
X25190476Y-9788152D02*
X25190476Y-10121485D01*
X25190476Y-10121485D02*
X25142857Y-10311961D01*
X25142857Y-10311961D02*
X25047619Y-10407200D01*
X25047619Y-10407200D02*
X24952381Y-10454819D01*
X24952381Y-10454819D02*
X24761905Y-10454819D01*
X24761905Y-10454819D02*
X24666667Y-10407200D01*
X24666667Y-10407200D02*
X24571429Y-10311961D01*
X24571429Y-10311961D02*
X24523810Y-10121485D01*
X24523810Y-10121485D02*
X24523810Y-9788152D01*
X24523810Y-9788152D02*
X24571429Y-9597676D01*
X24571429Y-9597676D02*
X24666667Y-9502438D01*
X24666667Y-9502438D02*
X24761905Y-9454819D01*
X26190476Y-10454819D02*
X25857143Y-9978628D01*
X25619048Y-10454819D02*
X25619048Y-9454819D01*
X25619048Y-9454819D02*
X26000000Y-9454819D01*
X26000000Y-9454819D02*
X26095238Y-9502438D01*
X26095238Y-9502438D02*
X26142857Y-9550057D01*
X26142857Y-9550057D02*
X26190476Y-9645295D01*
X26190476Y-9645295D02*
X26190476Y-9788152D01*
X26190476Y-9788152D02*
X26142857Y-9883390D01*
X26142857Y-9883390D02*
X26095238Y-9931009D01*
X26095238Y-9931009D02*
X26000000Y-9978628D01*
X26000000Y-9978628D02*
X25619048Y-9978628D01*
X26380953Y-10550057D02*
X27142857Y-10550057D01*
X27952381Y-10359580D02*
X27904762Y-10407200D01*
X27904762Y-10407200D02*
X27761905Y-10454819D01*
X27761905Y-10454819D02*
X27666667Y-10454819D01*
X27666667Y-10454819D02*
X27523810Y-10407200D01*
X27523810Y-10407200D02*
X27428572Y-10311961D01*
X27428572Y-10311961D02*
X27380953Y-10216723D01*
X27380953Y-10216723D02*
X27333334Y-10026247D01*
X27333334Y-10026247D02*
X27333334Y-9883390D01*
X27333334Y-9883390D02*
X27380953Y-9692914D01*
X27380953Y-9692914D02*
X27428572Y-9597676D01*
X27428572Y-9597676D02*
X27523810Y-9502438D01*
X27523810Y-9502438D02*
X27666667Y-9454819D01*
X27666667Y-9454819D02*
X27761905Y-9454819D01*
X27761905Y-9454819D02*
X27904762Y-9502438D01*
X27904762Y-9502438D02*
X27952381Y-9550057D01*
X28380953Y-10454819D02*
X28380953Y-9454819D01*
X28380953Y-9931009D02*
X28952381Y-9931009D01*
X28952381Y-10454819D02*
X28952381Y-9454819D01*
X29952381Y-10454819D02*
X29380953Y-10454819D01*
X29666667Y-10454819D02*
X29666667Y-9454819D01*
X29666667Y-9454819D02*
X29571429Y-9597676D01*
X29571429Y-9597676D02*
X29476191Y-9692914D01*
X29476191Y-9692914D02*
X29380953Y-9740533D01*
X21833333Y-21454819D02*
X21833333Y-22169104D01*
X21833333Y-22169104D02*
X21785714Y-22311961D01*
X21785714Y-22311961D02*
X21690476Y-22407200D01*
X21690476Y-22407200D02*
X21547619Y-22454819D01*
X21547619Y-22454819D02*
X21452381Y-22454819D01*
X22071429Y-22550057D02*
X22833333Y-22550057D01*
X23023810Y-22407200D02*
X23166667Y-22454819D01*
X23166667Y-22454819D02*
X23404762Y-22454819D01*
X23404762Y-22454819D02*
X23500000Y-22407200D01*
X23500000Y-22407200D02*
X23547619Y-22359580D01*
X23547619Y-22359580D02*
X23595238Y-22264342D01*
X23595238Y-22264342D02*
X23595238Y-22169104D01*
X23595238Y-22169104D02*
X23547619Y-22073866D01*
X23547619Y-22073866D02*
X23500000Y-22026247D01*
X23500000Y-22026247D02*
X23404762Y-21978628D01*
X23404762Y-21978628D02*
X23214286Y-21931009D01*
X23214286Y-21931009D02*
X23119048Y-21883390D01*
X23119048Y-21883390D02*
X23071429Y-21835771D01*
X23071429Y-21835771D02*
X23023810Y-21740533D01*
X23023810Y-21740533D02*
X23023810Y-21645295D01*
X23023810Y-21645295D02*
X23071429Y-21550057D01*
X23071429Y-21550057D02*
X23119048Y-21502438D01*
X23119048Y-21502438D02*
X23214286Y-21454819D01*
X23214286Y-21454819D02*
X23452381Y-21454819D01*
X23452381Y-21454819D02*
X23595238Y-21502438D01*
X23928572Y-21454819D02*
X24166667Y-22454819D01*
X24166667Y-22454819D02*
X24357143Y-21740533D01*
X24357143Y-21740533D02*
X24547619Y-22454819D01*
X24547619Y-22454819D02*
X24785715Y-21454819D01*
X24928572Y-22550057D02*
X25690476Y-22550057D01*
X26500000Y-22359580D02*
X26452381Y-22407200D01*
X26452381Y-22407200D02*
X26309524Y-22454819D01*
X26309524Y-22454819D02*
X26214286Y-22454819D01*
X26214286Y-22454819D02*
X26071429Y-22407200D01*
X26071429Y-22407200D02*
X25976191Y-22311961D01*
X25976191Y-22311961D02*
X25928572Y-22216723D01*
X25928572Y-22216723D02*
X25880953Y-22026247D01*
X25880953Y-22026247D02*
X25880953Y-21883390D01*
X25880953Y-21883390D02*
X25928572Y-21692914D01*
X25928572Y-21692914D02*
X25976191Y-21597676D01*
X25976191Y-21597676D02*
X26071429Y-21502438D01*
X26071429Y-21502438D02*
X26214286Y-21454819D01*
X26214286Y-21454819D02*
X26309524Y-21454819D01*
X26309524Y-21454819D02*
X26452381Y-21502438D01*
X26452381Y-21502438D02*
X26500000Y-21550057D01*
X26928572Y-22454819D02*
X26928572Y-21454819D01*
X26928572Y-21931009D02*
X27500000Y-21931009D01*
X27500000Y-22454819D02*
X27500000Y-21454819D01*
X28500000Y-22454819D02*
X27928572Y-22454819D01*
X28214286Y-22454819D02*
X28214286Y-21454819D01*
X28214286Y-21454819D02*
X28119048Y-21597676D01*
X28119048Y-21597676D02*
X28023810Y-21692914D01*
X28023810Y-21692914D02*
X27928572Y-21740533D01*
X49666666Y-39454819D02*
X49666666Y-40169104D01*
X49666666Y-40169104D02*
X49619047Y-40311961D01*
X49619047Y-40311961D02*
X49523809Y-40407200D01*
X49523809Y-40407200D02*
X49380952Y-40454819D01*
X49380952Y-40454819D02*
X49285714Y-40454819D01*
X50571428Y-39454819D02*
X50380952Y-39454819D01*
X50380952Y-39454819D02*
X50285714Y-39502438D01*
X50285714Y-39502438D02*
X50238095Y-39550057D01*
X50238095Y-39550057D02*
X50142857Y-39692914D01*
X50142857Y-39692914D02*
X50095238Y-39883390D01*
X50095238Y-39883390D02*
X50095238Y-40264342D01*
X50095238Y-40264342D02*
X50142857Y-40359580D01*
X50142857Y-40359580D02*
X50190476Y-40407200D01*
X50190476Y-40407200D02*
X50285714Y-40454819D01*
X50285714Y-40454819D02*
X50476190Y-40454819D01*
X50476190Y-40454819D02*
X50571428Y-40407200D01*
X50571428Y-40407200D02*
X50619047Y-40359580D01*
X50619047Y-40359580D02*
X50666666Y-40264342D01*
X50666666Y-40264342D02*
X50666666Y-40026247D01*
X50666666Y-40026247D02*
X50619047Y-39931009D01*
X50619047Y-39931009D02*
X50571428Y-39883390D01*
X50571428Y-39883390D02*
X50476190Y-39835771D01*
X50476190Y-39835771D02*
X50285714Y-39835771D01*
X50285714Y-39835771D02*
X50190476Y-39883390D01*
X50190476Y-39883390D02*
X50142857Y-39931009D01*
X50142857Y-39931009D02*
X50095238Y-40026247D01*
X45380952Y-9454819D02*
X45380952Y-10169104D01*
X45380952Y-10169104D02*
X45333333Y-10311961D01*
X45333333Y-10311961D02*
X45238095Y-10407200D01*
X45238095Y-10407200D02*
X45095238Y-10454819D01*
X45095238Y-10454819D02*
X45000000Y-10454819D01*
X45619048Y-10550057D02*
X46380952Y-10550057D01*
X46619048Y-10454819D02*
X46619048Y-9454819D01*
X46619048Y-9454819D02*
X46952381Y-10169104D01*
X46952381Y-10169104D02*
X47285714Y-9454819D01*
X47285714Y-9454819D02*
X47285714Y-10454819D01*
X47952381Y-9454819D02*
X48142857Y-9454819D01*
X48142857Y-9454819D02*
X48238095Y-9502438D01*
X48238095Y-9502438D02*
X48333333Y-9597676D01*
X48333333Y-9597676D02*
X48380952Y-9788152D01*
X48380952Y-9788152D02*
X48380952Y-10121485D01*
X48380952Y-10121485D02*
X48333333Y-10311961D01*
X48333333Y-10311961D02*
X48238095Y-10407200D01*
X48238095Y-10407200D02*
X48142857Y-10454819D01*
X48142857Y-10454819D02*
X47952381Y-10454819D01*
X47952381Y-10454819D02*
X47857143Y-10407200D01*
X47857143Y-10407200D02*
X47761905Y-10311961D01*
X47761905Y-10311961D02*
X47714286Y-10121485D01*
X47714286Y-10121485D02*
X47714286Y-9788152D01*
X47714286Y-9788152D02*
X47761905Y-9597676D01*
X47761905Y-9597676D02*
X47857143Y-9502438D01*
X47857143Y-9502438D02*
X47952381Y-9454819D01*
X48666667Y-9454819D02*
X49238095Y-9454819D01*
X48952381Y-10454819D02*
X48952381Y-9454819D01*
X49761905Y-9454819D02*
X49952381Y-9454819D01*
X49952381Y-9454819D02*
X50047619Y-9502438D01*
X50047619Y-9502438D02*
X50142857Y-9597676D01*
X50142857Y-9597676D02*
X50190476Y-9788152D01*
X50190476Y-9788152D02*
X50190476Y-10121485D01*
X50190476Y-10121485D02*
X50142857Y-10311961D01*
X50142857Y-10311961D02*
X50047619Y-10407200D01*
X50047619Y-10407200D02*
X49952381Y-10454819D01*
X49952381Y-10454819D02*
X49761905Y-10454819D01*
X49761905Y-10454819D02*
X49666667Y-10407200D01*
X49666667Y-10407200D02*
X49571429Y-10311961D01*
X49571429Y-10311961D02*
X49523810Y-10121485D01*
X49523810Y-10121485D02*
X49523810Y-9788152D01*
X49523810Y-9788152D02*
X49571429Y-9597676D01*
X49571429Y-9597676D02*
X49666667Y-9502438D01*
X49666667Y-9502438D02*
X49761905Y-9454819D01*
X51190476Y-10454819D02*
X50857143Y-9978628D01*
X50619048Y-10454819D02*
X50619048Y-9454819D01*
X50619048Y-9454819D02*
X51000000Y-9454819D01*
X51000000Y-9454819D02*
X51095238Y-9502438D01*
X51095238Y-9502438D02*
X51142857Y-9550057D01*
X51142857Y-9550057D02*
X51190476Y-9645295D01*
X51190476Y-9645295D02*
X51190476Y-9788152D01*
X51190476Y-9788152D02*
X51142857Y-9883390D01*
X51142857Y-9883390D02*
X51095238Y-9931009D01*
X51095238Y-9931009D02*
X51000000Y-9978628D01*
X51000000Y-9978628D02*
X50619048Y-9978628D01*
X51380953Y-10550057D02*
X52142857Y-10550057D01*
X52952381Y-10359580D02*
X52904762Y-10407200D01*
X52904762Y-10407200D02*
X52761905Y-10454819D01*
X52761905Y-10454819D02*
X52666667Y-10454819D01*
X52666667Y-10454819D02*
X52523810Y-10407200D01*
X52523810Y-10407200D02*
X52428572Y-10311961D01*
X52428572Y-10311961D02*
X52380953Y-10216723D01*
X52380953Y-10216723D02*
X52333334Y-10026247D01*
X52333334Y-10026247D02*
X52333334Y-9883390D01*
X52333334Y-9883390D02*
X52380953Y-9692914D01*
X52380953Y-9692914D02*
X52428572Y-9597676D01*
X52428572Y-9597676D02*
X52523810Y-9502438D01*
X52523810Y-9502438D02*
X52666667Y-9454819D01*
X52666667Y-9454819D02*
X52761905Y-9454819D01*
X52761905Y-9454819D02*
X52904762Y-9502438D01*
X52904762Y-9502438D02*
X52952381Y-9550057D01*
X53380953Y-10454819D02*
X53380953Y-9454819D01*
X53380953Y-9931009D02*
X53952381Y-9931009D01*
X53952381Y-10454819D02*
X53952381Y-9454819D01*
X54380953Y-9550057D02*
X54428572Y-9502438D01*
X54428572Y-9502438D02*
X54523810Y-9454819D01*
X54523810Y-9454819D02*
X54761905Y-9454819D01*
X54761905Y-9454819D02*
X54857143Y-9502438D01*
X54857143Y-9502438D02*
X54904762Y-9550057D01*
X54904762Y-9550057D02*
X54952381Y-9645295D01*
X54952381Y-9645295D02*
X54952381Y-9740533D01*
X54952381Y-9740533D02*
X54904762Y-9883390D01*
X54904762Y-9883390D02*
X54333334Y-10454819D01*
X54333334Y-10454819D02*
X54952381Y-10454819D01*
X46833333Y-21454819D02*
X46833333Y-22169104D01*
X46833333Y-22169104D02*
X46785714Y-22311961D01*
X46785714Y-22311961D02*
X46690476Y-22407200D01*
X46690476Y-22407200D02*
X46547619Y-22454819D01*
X46547619Y-22454819D02*
X46452381Y-22454819D01*
X47071429Y-22550057D02*
X47833333Y-22550057D01*
X48023810Y-22407200D02*
X48166667Y-22454819D01*
X48166667Y-22454819D02*
X48404762Y-22454819D01*
X48404762Y-22454819D02*
X48500000Y-22407200D01*
X48500000Y-22407200D02*
X48547619Y-22359580D01*
X48547619Y-22359580D02*
X48595238Y-22264342D01*
X48595238Y-22264342D02*
X48595238Y-22169104D01*
X48595238Y-22169104D02*
X48547619Y-22073866D01*
X48547619Y-22073866D02*
X48500000Y-22026247D01*
X48500000Y-22026247D02*
X48404762Y-21978628D01*
X48404762Y-21978628D02*
X48214286Y-21931009D01*
X48214286Y-21931009D02*
X48119048Y-21883390D01*
X48119048Y-21883390D02*
X48071429Y-21835771D01*
X48071429Y-21835771D02*
X48023810Y-21740533D01*
X48023810Y-21740533D02*
X48023810Y-21645295D01*
X48023810Y-21645295D02*
X48071429Y-21550057D01*
X48071429Y-21550057D02*
X48119048Y-21502438D01*
X48119048Y-21502438D02*
X48214286Y-21454819D01*
X48214286Y-21454819D02*
X48452381Y-21454819D01*
X48452381Y-21454819D02*
X48595238Y-21502438D01*
X48928572Y-21454819D02*
X49166667Y-22454819D01*
X49166667Y-22454819D02*
X49357143Y-21740533D01*
X49357143Y-21740533D02*
X49547619Y-22454819D01*
X49547619Y-22454819D02*
X49785715Y-21454819D01*
X49928572Y-22550057D02*
X50690476Y-22550057D01*
X51500000Y-22359580D02*
X51452381Y-22407200D01*
X51452381Y-22407200D02*
X51309524Y-22454819D01*
X51309524Y-22454819D02*
X51214286Y-22454819D01*
X51214286Y-22454819D02*
X51071429Y-22407200D01*
X51071429Y-22407200D02*
X50976191Y-22311961D01*
X50976191Y-22311961D02*
X50928572Y-22216723D01*
X50928572Y-22216723D02*
X50880953Y-22026247D01*
X50880953Y-22026247D02*
X50880953Y-21883390D01*
X50880953Y-21883390D02*
X50928572Y-21692914D01*
X50928572Y-21692914D02*
X50976191Y-21597676D01*
X50976191Y-21597676D02*
X51071429Y-21502438D01*
X51071429Y-21502438D02*
X51214286Y-21454819D01*
X51214286Y-21454819D02*
X51309524Y-21454819D01*
X51309524Y-21454819D02*
X51452381Y-21502438D01*
X51452381Y-21502438D02*
X51500000Y-21550057D01*
X51928572Y-22454819D02*
X51928572Y-21454819D01*
X51928572Y-21931009D02*
X52500000Y-21931009D01*
X52500000Y-22454819D02*
X52500000Y-21454819D01*
X52928572Y-21550057D02*
X52976191Y-21502438D01*
X52976191Y-21502438D02*
X53071429Y-21454819D01*
X53071429Y-21454819D02*
X53309524Y-21454819D01*
X53309524Y-21454819D02*
X53404762Y-21502438D01*
X53404762Y-21502438D02*
X53452381Y-21550057D01*
X53452381Y-21550057D02*
X53500000Y-21645295D01*
X53500000Y-21645295D02*
X53500000Y-21740533D01*
X53500000Y-21740533D02*
X53452381Y-21883390D01*
X53452381Y-21883390D02*
X52880953Y-22454819D01*
X52880953Y-22454819D02*
X53500000Y-22454819D01*
X74666666Y-39454819D02*
X74666666Y-40169104D01*
X74666666Y-40169104D02*
X74619047Y-40311961D01*
X74619047Y-40311961D02*
X74523809Y-40407200D01*
X74523809Y-40407200D02*
X74380952Y-40454819D01*
X74380952Y-40454819D02*
X74285714Y-40454819D01*
X75047619Y-39454819D02*
X75714285Y-39454819D01*
X75714285Y-39454819D02*
X75285714Y-40454819D01*
X70380952Y-9454819D02*
X70380952Y-10169104D01*
X70380952Y-10169104D02*
X70333333Y-10311961D01*
X70333333Y-10311961D02*
X70238095Y-10407200D01*
X70238095Y-10407200D02*
X70095238Y-10454819D01*
X70095238Y-10454819D02*
X70000000Y-10454819D01*
X70619048Y-10550057D02*
X71380952Y-10550057D01*
X71619048Y-10454819D02*
X71619048Y-9454819D01*
X71619048Y-9454819D02*
X71952381Y-10169104D01*
X71952381Y-10169104D02*
X72285714Y-9454819D01*
X72285714Y-9454819D02*
X72285714Y-10454819D01*
X72952381Y-9454819D02*
X73142857Y-9454819D01*
X73142857Y-9454819D02*
X73238095Y-9502438D01*
X73238095Y-9502438D02*
X73333333Y-9597676D01*
X73333333Y-9597676D02*
X73380952Y-9788152D01*
X73380952Y-9788152D02*
X73380952Y-10121485D01*
X73380952Y-10121485D02*
X73333333Y-10311961D01*
X73333333Y-10311961D02*
X73238095Y-10407200D01*
X73238095Y-10407200D02*
X73142857Y-10454819D01*
X73142857Y-10454819D02*
X72952381Y-10454819D01*
X72952381Y-10454819D02*
X72857143Y-10407200D01*
X72857143Y-10407200D02*
X72761905Y-10311961D01*
X72761905Y-10311961D02*
X72714286Y-10121485D01*
X72714286Y-10121485D02*
X72714286Y-9788152D01*
X72714286Y-9788152D02*
X72761905Y-9597676D01*
X72761905Y-9597676D02*
X72857143Y-9502438D01*
X72857143Y-9502438D02*
X72952381Y-9454819D01*
X73666667Y-9454819D02*
X74238095Y-9454819D01*
X73952381Y-10454819D02*
X73952381Y-9454819D01*
X74761905Y-9454819D02*
X74952381Y-9454819D01*
X74952381Y-9454819D02*
X75047619Y-9502438D01*
X75047619Y-9502438D02*
X75142857Y-9597676D01*
X75142857Y-9597676D02*
X75190476Y-9788152D01*
X75190476Y-9788152D02*
X75190476Y-10121485D01*
X75190476Y-10121485D02*
X75142857Y-10311961D01*
X75142857Y-10311961D02*
X75047619Y-10407200D01*
X75047619Y-10407200D02*
X74952381Y-10454819D01*
X74952381Y-10454819D02*
X74761905Y-10454819D01*
X74761905Y-10454819D02*
X74666667Y-10407200D01*
X74666667Y-10407200D02*
X74571429Y-10311961D01*
X74571429Y-10311961D02*
X74523810Y-10121485D01*
X74523810Y-10121485D02*
X74523810Y-9788152D01*
X74523810Y-9788152D02*
X74571429Y-9597676D01*
X74571429Y-9597676D02*
X74666667Y-9502438D01*
X74666667Y-9502438D02*
X74761905Y-9454819D01*
X76190476Y-10454819D02*
X75857143Y-9978628D01*
X75619048Y-10454819D02*
X75619048Y-9454819D01*
X75619048Y-9454819D02*
X76000000Y-9454819D01*
X76000000Y-9454819D02*
X76095238Y-9502438D01*
X76095238Y-9502438D02*
X76142857Y-9550057D01*
X76142857Y-9550057D02*
X76190476Y-9645295D01*
X76190476Y-9645295D02*
X76190476Y-9788152D01*
X76190476Y-9788152D02*
X76142857Y-9883390D01*
X76142857Y-9883390D02*
X76095238Y-9931009D01*
X76095238Y-9931009D02*
X76000000Y-9978628D01*
X76000000Y-9978628D02*
X75619048Y-9978628D01*
X76380953Y-10550057D02*
X77142857Y-10550057D01*
X77952381Y-10359580D02*
X77904762Y-10407200D01*
X77904762Y-10407200D02*
X77761905Y-10454819D01*
X77761905Y-10454819D02*
X77666667Y-10454819D01*
X77666667Y-10454819D02*
X77523810Y-10407200D01*
X77523810Y-10407200D02*
X77428572Y-10311961D01*
X77428572Y-10311961D02*
X77380953Y-10216723D01*
X77380953Y-10216723D02*
X77333334Y-10026247D01*
X77333334Y-10026247D02*
X77333334Y-9883390D01*
X77333334Y-9883390D02*
X77380953Y-9692914D01*
X77380953Y-9692914D02*
X77428572Y-9597676D01*
X77428572Y-9597676D02*
X77523810Y-9502438D01*
X77523810Y-9502438D02*
X77666667Y-9454819D01*
X77666667Y-9454819D02*
X77761905Y-9454819D01*
X77761905Y-9454819D02*
X77904762Y-9502438D01*
X77904762Y-9502438D02*
X77952381Y-9550057D01*
X78380953Y-10454819D02*
X78380953Y-9454819D01*
X78380953Y-9931009D02*
X78952381Y-9931009D01*
X78952381Y-10454819D02*
X78952381Y-9454819D01*
X79333334Y-9454819D02*
X79952381Y-9454819D01*
X79952381Y-9454819D02*
X79619048Y-9835771D01*
X79619048Y-9835771D02*
X79761905Y-9835771D01*
X79761905Y-9835771D02*
X79857143Y-9883390D01*
X79857143Y-9883390D02*
X79904762Y-9931009D01*
X79904762Y-9931009D02*
X79952381Y-10026247D01*
X79952381Y-10026247D02*
X79952381Y-10264342D01*
X79952381Y-10264342D02*
X79904762Y-10359580D01*
X79904762Y-10359580D02*
X79857143Y-10407200D01*
X79857143Y-10407200D02*
X79761905Y-10454819D01*
X79761905Y-10454819D02*
X79476191Y-10454819D01*
X79476191Y-10454819D02*
X79380953Y-10407200D01*
X79380953Y-10407200D02*
X79333334Y-10359580D01*
X71833333Y-21454819D02*
X71833333Y-22169104D01*
X71833333Y-22169104D02*
X71785714Y-22311961D01*
X71785714Y-22311961D02*
X71690476Y-22407200D01*
X71690476Y-22407200D02*
X71547619Y-22454819D01*
X71547619Y-22454819D02*
X71452381Y-22454819D01*
X72071429Y-22550057D02*
X72833333Y-22550057D01*
X73023810Y-22407200D02*
X73166667Y-22454819D01*
X73166667Y-22454819D02*
X73404762Y-22454819D01*
X73404762Y-22454819D02*
X73500000Y-22407200D01*
X73500000Y-22407200D02*
X73547619Y-22359580D01*
X73547619Y-22359580D02*
X73595238Y-22264342D01*
X73595238Y-22264342D02*
X73595238Y-22169104D01*
X73595238Y-22169104D02*
X73547619Y-22073866D01*
X73547619Y-22073866D02*
X73500000Y-22026247D01*
X73500000Y-22026247D02*
X73404762Y-21978628D01*
X73404762Y-21978628D02*
X73214286Y-21931009D01*
X73214286Y-21931009D02*
X73119048Y-21883390D01*
X73119048Y-21883390D02*
X73071429Y-21835771D01*
X73071429Y-21835771D02*
X73023810Y-21740533D01*
X73023810Y-21740533D02*
X73023810Y-21645295D01*
X73023810Y-21645295D02*
X73071429Y-21550057D01*
X73071429Y-21550057D02*
X73119048Y-21502438D01*
X73119048Y-21502438D02*
X73214286Y-21454819D01*
X73214286Y-21454819D02*
X73452381Y-21454819D01*
X73452381Y-21454819D02*
X73595238Y-21502438D01*
X73928572Y-21454819D02*
X74166667Y-22454819D01*
X74166667Y-22454819D02*
X74357143Y-21740533D01*
X74357143Y-21740533D02*
X74547619Y-22454819D01*
X74547619Y-22454819D02*
X74785715Y-21454819D01*
X74928572Y-22550057D02*
X75690476Y-22550057D01*
X76500000Y-22359580D02*
X76452381Y-22407200D01*
X76452381Y-22407200D02*
X76309524Y-22454819D01*
X76309524Y-22454819D02*
X76214286Y-22454819D01*
X76214286Y-22454819D02*
X76071429Y-22407200D01*
X76071429Y-22407200D02*
X75976191Y-22311961D01*
X75976191Y-22311961D02*
X75928572Y-22216723D01*
X75928572Y-22216723D02*
X75880953Y-22026247D01*
X75880953Y-22026247D02*
X75880953Y-21883390D01*
X75880953Y-21883390D02*
X75928572Y-21692914D01*
X75928572Y-21692914D02*
X75976191Y-21597676D01*
X75976191Y-21597676D02*
X76071429Y-21502438D01*
X76071429Y-21502438D02*
X76214286Y-21454819D01*
X76214286Y-21454819D02*
X76309524Y-21454819D01*
X76309524Y-21454819D02*
X76452381Y-21502438D01*
X76452381Y-21502438D02*
X76500000Y-21550057D01*
X76928572Y-22454819D02*
X76928572Y-21454819D01*
X76928572Y-21931009D02*
X77500000Y-21931009D01*
X77500000Y-22454819D02*
X77500000Y-21454819D01*
X77880953Y-21454819D02*
X78500000Y-21454819D01*
X78500000Y-21454819D02*
X78166667Y-21835771D01*
X78166667Y-21835771D02*
X78309524Y-21835771D01*
X78309524Y-21835771D02*
X78404762Y-21883390D01*
X78404762Y-21883390D02*
X78452381Y-21931009D01*
X78452381Y-21931009D02*
X78500000Y-22026247D01*
X78500000Y-22026247D02*
X78500000Y-22264342D01*
X78500000Y-22264342D02*
X78452381Y-22359580D01*
X78452381Y-22359580D02*
X78404762Y-22407200D01*
X78404762Y-22407200D02*
X78309524Y-22454819D01*
X78309524Y-22454819D02*
X78023810Y-22454819D01*
X78023810Y-22454819D02*
X77928572Y-22407200D01*
X77928572Y-22407200D02*
X77880953Y-22359580D01*
X99666666Y-39454819D02*
X99666666Y-40169104D01*
X99666666Y-40169104D02*
X99619047Y-40311961D01*
X99619047Y-40311961D02*
X99523809Y-40407200D01*
X99523809Y-40407200D02*
X99380952Y-40454819D01*
X99380952Y-40454819D02*
X99285714Y-40454819D01*
X100285714Y-39883390D02*
X100190476Y-39835771D01*
X100190476Y-39835771D02*
X100142857Y-39788152D01*
X100142857Y-39788152D02*
X100095238Y-39692914D01*
X100095238Y-39692914D02*
X100095238Y-39645295D01*
X100095238Y-39645295D02*
X100142857Y-39550057D01*
X100142857Y-39550057D02*
X100190476Y-39502438D01*
X100190476Y-39502438D02*
X100285714Y-39454819D01*
X100285714Y-39454819D02*
X100476190Y-39454819D01*
X100476190Y-39454819D02*
X100571428Y-39502438D01*
X100571428Y-39502438D02*
X100619047Y-39550057D01*
X100619047Y-39550057D02*
X100666666Y-39645295D01*
X100666666Y-39645295D02*
X100666666Y-39692914D01*
X100666666Y-39692914D02*
X100619047Y-39788152D01*
X100619047Y-39788152D02*
X100571428Y-39835771D01*
X100571428Y-39835771D02*
X100476190Y-39883390D01*
X100476190Y-39883390D02*
X100285714Y-39883390D01*
X100285714Y-39883390D02*
X100190476Y-39931009D01*
X100190476Y-39931009D02*
X100142857Y-39978628D01*
X100142857Y-39978628D02*
X100095238Y-40073866D01*
X100095238Y-40073866D02*
X100095238Y-40264342D01*
X100095238Y-40264342D02*
X100142857Y-40359580D01*
X100142857Y-40359580D02*
X100190476Y-40407200D01*
X100190476Y-40407200D02*
X100285714Y-40454819D01*
X100285714Y-40454819D02*
X100476190Y-40454819D01*
X100476190Y-40454819D02*
X100571428Y-40407200D01*
X100571428Y-40407200D02*
X100619047Y-40359580D01*
X100619047Y-40359580D02*
X100666666Y-40264342D01*
X100666666Y-40264342D02*
X100666666Y-40073866D01*
X100666666Y-40073866D02*
X100619047Y-39978628D01*
X100619047Y-39978628D02*
X100571428Y-39931009D01*
X100571428Y-39931009D02*
X100476190Y-39883390D01*
X95380952Y-9454819D02*
X95380952Y-10169104D01*
X95380952Y-10169104D02*
X95333333Y-10311961D01*
X95333333Y-10311961D02*
X95238095Y-10407200D01*
X95238095Y-10407200D02*
X95095238Y-10454819D01*
X95095238Y-10454819D02*
X95000000Y-10454819D01*
X95619048Y-10550057D02*
X96380952Y-10550057D01*
X96619048Y-10454819D02*
X96619048Y-9454819D01*
X96619048Y-9454819D02*
X96952381Y-10169104D01*
X96952381Y-10169104D02*
X97285714Y-9454819D01*
X97285714Y-9454819D02*
X97285714Y-10454819D01*
X97952381Y-9454819D02*
X98142857Y-9454819D01*
X98142857Y-9454819D02*
X98238095Y-9502438D01*
X98238095Y-9502438D02*
X98333333Y-9597676D01*
X98333333Y-9597676D02*
X98380952Y-9788152D01*
X98380952Y-9788152D02*
X98380952Y-10121485D01*
X98380952Y-10121485D02*
X98333333Y-10311961D01*
X98333333Y-10311961D02*
X98238095Y-10407200D01*
X98238095Y-10407200D02*
X98142857Y-10454819D01*
X98142857Y-10454819D02*
X97952381Y-10454819D01*
X97952381Y-10454819D02*
X97857143Y-10407200D01*
X97857143Y-10407200D02*
X97761905Y-10311961D01*
X97761905Y-10311961D02*
X97714286Y-10121485D01*
X97714286Y-10121485D02*
X97714286Y-9788152D01*
X97714286Y-9788152D02*
X97761905Y-9597676D01*
X97761905Y-9597676D02*
X97857143Y-9502438D01*
X97857143Y-9502438D02*
X97952381Y-9454819D01*
X98666667Y-9454819D02*
X99238095Y-9454819D01*
X98952381Y-10454819D02*
X98952381Y-9454819D01*
X99761905Y-9454819D02*
X99952381Y-9454819D01*
X99952381Y-9454819D02*
X100047619Y-9502438D01*
X100047619Y-9502438D02*
X100142857Y-9597676D01*
X100142857Y-9597676D02*
X100190476Y-9788152D01*
X100190476Y-9788152D02*
X100190476Y-10121485D01*
X100190476Y-10121485D02*
X100142857Y-10311961D01*
X100142857Y-10311961D02*
X100047619Y-10407200D01*
X100047619Y-10407200D02*
X99952381Y-10454819D01*
X99952381Y-10454819D02*
X99761905Y-10454819D01*
X99761905Y-10454819D02*
X99666667Y-10407200D01*
X99666667Y-10407200D02*
X99571429Y-10311961D01*
X99571429Y-10311961D02*
X99523810Y-10121485D01*
X99523810Y-10121485D02*
X99523810Y-9788152D01*
X99523810Y-9788152D02*
X99571429Y-9597676D01*
X99571429Y-9597676D02*
X99666667Y-9502438D01*
X99666667Y-9502438D02*
X99761905Y-9454819D01*
X101190476Y-10454819D02*
X100857143Y-9978628D01*
X100619048Y-10454819D02*
X100619048Y-9454819D01*
X100619048Y-9454819D02*
X101000000Y-9454819D01*
X101000000Y-9454819D02*
X101095238Y-9502438D01*
X101095238Y-9502438D02*
X101142857Y-9550057D01*
X101142857Y-9550057D02*
X101190476Y-9645295D01*
X101190476Y-9645295D02*
X101190476Y-9788152D01*
X101190476Y-9788152D02*
X101142857Y-9883390D01*
X101142857Y-9883390D02*
X101095238Y-9931009D01*
X101095238Y-9931009D02*
X101000000Y-9978628D01*
X101000000Y-9978628D02*
X100619048Y-9978628D01*
X101380953Y-10550057D02*
X102142857Y-10550057D01*
X102952381Y-10359580D02*
X102904762Y-10407200D01*
X102904762Y-10407200D02*
X102761905Y-10454819D01*
X102761905Y-10454819D02*
X102666667Y-10454819D01*
X102666667Y-10454819D02*
X102523810Y-10407200D01*
X102523810Y-10407200D02*
X102428572Y-10311961D01*
X102428572Y-10311961D02*
X102380953Y-10216723D01*
X102380953Y-10216723D02*
X102333334Y-10026247D01*
X102333334Y-10026247D02*
X102333334Y-9883390D01*
X102333334Y-9883390D02*
X102380953Y-9692914D01*
X102380953Y-9692914D02*
X102428572Y-9597676D01*
X102428572Y-9597676D02*
X102523810Y-9502438D01*
X102523810Y-9502438D02*
X102666667Y-9454819D01*
X102666667Y-9454819D02*
X102761905Y-9454819D01*
X102761905Y-9454819D02*
X102904762Y-9502438D01*
X102904762Y-9502438D02*
X102952381Y-9550057D01*
X103380953Y-10454819D02*
X103380953Y-9454819D01*
X103380953Y-9931009D02*
X103952381Y-9931009D01*
X103952381Y-10454819D02*
X103952381Y-9454819D01*
X104857143Y-9788152D02*
X104857143Y-10454819D01*
X104619048Y-9407200D02*
X104380953Y-10121485D01*
X104380953Y-10121485D02*
X105000000Y-10121485D01*
X96833333Y-21454819D02*
X96833333Y-22169104D01*
X96833333Y-22169104D02*
X96785714Y-22311961D01*
X96785714Y-22311961D02*
X96690476Y-22407200D01*
X96690476Y-22407200D02*
X96547619Y-22454819D01*
X96547619Y-22454819D02*
X96452381Y-22454819D01*
X97071429Y-22550057D02*
X97833333Y-22550057D01*
X98023810Y-22407200D02*
X98166667Y-22454819D01*
X98166667Y-22454819D02*
X98404762Y-22454819D01*
X98404762Y-22454819D02*
X98500000Y-22407200D01*
X98500000Y-22407200D02*
X98547619Y-22359580D01*
X98547619Y-22359580D02*
X98595238Y-22264342D01*
X98595238Y-22264342D02*
X98595238Y-22169104D01*
X98595238Y-22169104D02*
X98547619Y-22073866D01*
X98547619Y-22073866D02*
X98500000Y-22026247D01*
X98500000Y-22026247D02*
X98404762Y-21978628D01*
X98404762Y-21978628D02*
X98214286Y-21931009D01*
X98214286Y-21931009D02*
X98119048Y-21883390D01*
X98119048Y-21883390D02*
X98071429Y-21835771D01*
X98071429Y-21835771D02*
X98023810Y-21740533D01*
X98023810Y-21740533D02*
X98023810Y-21645295D01*
X98023810Y-21645295D02*
X98071429Y-21550057D01*
X98071429Y-21550057D02*
X98119048Y-21502438D01*
X98119048Y-21502438D02*
X98214286Y-21454819D01*
X98214286Y-21454819D02*
X98452381Y-21454819D01*
X98452381Y-21454819D02*
X98595238Y-21502438D01*
X98928572Y-21454819D02*
X99166667Y-22454819D01*
X99166667Y-22454819D02*
X99357143Y-21740533D01*
X99357143Y-21740533D02*
X99547619Y-22454819D01*
X99547619Y-22454819D02*
X99785715Y-21454819D01*
X99928572Y-22550057D02*
X100690476Y-22550057D01*
X101500000Y-22359580D02*
X101452381Y-22407200D01*
X101452381Y-22407200D02*
X101309524Y-22454819D01*
X101309524Y-22454819D02*
X101214286Y-22454819D01*
X101214286Y-22454819D02*
X101071429Y-22407200D01*
X101071429Y-22407200D02*
X100976191Y-22311961D01*
X100976191Y-22311961D02*
X100928572Y-22216723D01*
X100928572Y-22216723D02*
X100880953Y-22026247D01*
X100880953Y-22026247D02*
X100880953Y-21883390D01*
X100880953Y-21883390D02*
X100928572Y-21692914D01*
X100928572Y-21692914D02*
X100976191Y-21597676D01*
X100976191Y-21597676D02*
X101071429Y-21502438D01*
X101071429Y-21502438D02*
X101214286Y-21454819D01*
X101214286Y-21454819D02*
X101309524Y-21454819D01*
X101309524Y-21454819D02*
X101452381Y-21502438D01*
X101452381Y-21502438D02*
X101500000Y-21550057D01*
X101928572Y-22454819D02*
X101928572Y-21454819D01*
X101928572Y-21931009D02*
X102500000Y-21931009D01*
X102500000Y-22454819D02*
X102500000Y-21454819D01*
X103404762Y-21788152D02*
X103404762Y-22454819D01*
X103166667Y-21407200D02*
X102928572Y-22121485D01*
X102928572Y-22121485D02*
X103547619Y-22121485D01*
X124666666Y-39454819D02*
X124666666Y-40169104D01*
X124666666Y-40169104D02*
X124619047Y-40311961D01*
X124619047Y-40311961D02*
X124523809Y-40407200D01*
X124523809Y-40407200D02*
X124380952Y-40454819D01*
X124380952Y-40454819D02*
X124285714Y-40454819D01*
X125190476Y-40454819D02*
X125380952Y-40454819D01*
X125380952Y-40454819D02*
X125476190Y-40407200D01*
X125476190Y-40407200D02*
X125523809Y-40359580D01*
X125523809Y-40359580D02*
X125619047Y-40216723D01*
X125619047Y-40216723D02*
X125666666Y-40026247D01*
X125666666Y-40026247D02*
X125666666Y-39645295D01*
X125666666Y-39645295D02*
X125619047Y-39550057D01*
X125619047Y-39550057D02*
X125571428Y-39502438D01*
X125571428Y-39502438D02*
X125476190Y-39454819D01*
X125476190Y-39454819D02*
X125285714Y-39454819D01*
X125285714Y-39454819D02*
X125190476Y-39502438D01*
X125190476Y-39502438D02*
X125142857Y-39550057D01*
X125142857Y-39550057D02*
X125095238Y-39645295D01*
X125095238Y-39645295D02*
X125095238Y-39883390D01*
X125095238Y-39883390D02*
X125142857Y-39978628D01*
X125142857Y-39978628D02*
X125190476Y-40026247D01*
X125190476Y-40026247D02*
X125285714Y-40073866D01*
X125285714Y-40073866D02*
X125476190Y-40073866D01*
X125476190Y-40073866D02*
X125571428Y-40026247D01*
X125571428Y-40026247D02*
X125619047Y-39978628D01*
X125619047Y-39978628D02*
X125666666Y-39883390D01*
X120380952Y-9454819D02*
X120380952Y-10169104D01*
X120380952Y-10169104D02*
X120333333Y-10311961D01*
X120333333Y-10311961D02*
X120238095Y-10407200D01*
X120238095Y-10407200D02*
X120095238Y-10454819D01*
X120095238Y-10454819D02*
X120000000Y-10454819D01*
X120619048Y-10550057D02*
X121380952Y-10550057D01*
X121619048Y-10454819D02*
X121619048Y-9454819D01*
X121619048Y-9454819D02*
X121952381Y-10169104D01*
X121952381Y-10169104D02*
X122285714Y-9454819D01*
X122285714Y-9454819D02*
X122285714Y-10454819D01*
X122952381Y-9454819D02*
X123142857Y-9454819D01*
X123142857Y-9454819D02*
X123238095Y-9502438D01*
X123238095Y-9502438D02*
X123333333Y-9597676D01*
X123333333Y-9597676D02*
X123380952Y-9788152D01*
X123380952Y-9788152D02*
X123380952Y-10121485D01*
X123380952Y-10121485D02*
X123333333Y-10311961D01*
X123333333Y-10311961D02*
X123238095Y-10407200D01*
X123238095Y-10407200D02*
X123142857Y-10454819D01*
X123142857Y-10454819D02*
X122952381Y-10454819D01*
X122952381Y-10454819D02*
X122857143Y-10407200D01*
X122857143Y-10407200D02*
X122761905Y-10311961D01*
X122761905Y-10311961D02*
X122714286Y-10121485D01*
X122714286Y-10121485D02*
X122714286Y-9788152D01*
X122714286Y-9788152D02*
X122761905Y-9597676D01*
X122761905Y-9597676D02*
X122857143Y-9502438D01*
X122857143Y-9502438D02*
X122952381Y-9454819D01*
X123666667Y-9454819D02*
X124238095Y-9454819D01*
X123952381Y-10454819D02*
X123952381Y-9454819D01*
X124761905Y-9454819D02*
X124952381Y-9454819D01*
X124952381Y-9454819D02*
X125047619Y-9502438D01*
X125047619Y-9502438D02*
X125142857Y-9597676D01*
X125142857Y-9597676D02*
X125190476Y-9788152D01*
X125190476Y-9788152D02*
X125190476Y-10121485D01*
X125190476Y-10121485D02*
X125142857Y-10311961D01*
X125142857Y-10311961D02*
X125047619Y-10407200D01*
X125047619Y-10407200D02*
X124952381Y-10454819D01*
X124952381Y-10454819D02*
X124761905Y-10454819D01*
X124761905Y-10454819D02*
X124666667Y-10407200D01*
X124666667Y-10407200D02*
X124571429Y-10311961D01*
X124571429Y-10311961D02*
X124523810Y-10121485D01*
X124523810Y-10121485D02*
X124523810Y-9788152D01*
X124523810Y-9788152D02*
X124571429Y-9597676D01*
X124571429Y-9597676D02*
X124666667Y-9502438D01*
X124666667Y-9502438D02*
X124761905Y-9454819D01*
X126190476Y-10454819D02*
X125857143Y-9978628D01*
X125619048Y-10454819D02*
X125619048Y-9454819D01*
X125619048Y-9454819D02*
X126000000Y-9454819D01*
X126000000Y-9454819D02*
X126095238Y-9502438D01*
X126095238Y-9502438D02*
X126142857Y-9550057D01*
X126142857Y-9550057D02*
X126190476Y-9645295D01*
X126190476Y-9645295D02*
X126190476Y-9788152D01*
X126190476Y-9788152D02*
X126142857Y-9883390D01*
X126142857Y-9883390D02*
X126095238Y-9931009D01*
X126095238Y-9931009D02*
X126000000Y-9978628D01*
X126000000Y-9978628D02*
X125619048Y-9978628D01*
X126380953Y-10550057D02*
X127142857Y-10550057D01*
X127952381Y-10359580D02*
X127904762Y-10407200D01*
X127904762Y-10407200D02*
X127761905Y-10454819D01*
X127761905Y-10454819D02*
X127666667Y-10454819D01*
X127666667Y-10454819D02*
X127523810Y-10407200D01*
X127523810Y-10407200D02*
X127428572Y-10311961D01*
X127428572Y-10311961D02*
X127380953Y-10216723D01*
X127380953Y-10216723D02*
X127333334Y-10026247D01*
X127333334Y-10026247D02*
X127333334Y-9883390D01*
X127333334Y-9883390D02*
X127380953Y-9692914D01*
X127380953Y-9692914D02*
X127428572Y-9597676D01*
X127428572Y-9597676D02*
X127523810Y-9502438D01*
X127523810Y-9502438D02*
X127666667Y-9454819D01*
X127666667Y-9454819D02*
X127761905Y-9454819D01*
X127761905Y-9454819D02*
X127904762Y-9502438D01*
X127904762Y-9502438D02*
X127952381Y-9550057D01*
X128380953Y-10454819D02*
X128380953Y-9454819D01*
X128380953Y-9931009D02*
X128952381Y-9931009D01*
X128952381Y-10454819D02*
X128952381Y-9454819D01*
X129904762Y-9454819D02*
X129428572Y-9454819D01*
X129428572Y-9454819D02*
X129380953Y-9931009D01*
X129380953Y-9931009D02*
X129428572Y-9883390D01*
X129428572Y-9883390D02*
X129523810Y-9835771D01*
X129523810Y-9835771D02*
X129761905Y-9835771D01*
X129761905Y-9835771D02*
X129857143Y-9883390D01*
X129857143Y-9883390D02*
X129904762Y-9931009D01*
X129904762Y-9931009D02*
X129952381Y-10026247D01*
X129952381Y-10026247D02*
X129952381Y-10264342D01*
X129952381Y-10264342D02*
X129904762Y-10359580D01*
X129904762Y-10359580D02*
X129857143Y-10407200D01*
X129857143Y-10407200D02*
X129761905Y-10454819D01*
X129761905Y-10454819D02*
X129523810Y-10454819D01*
X129523810Y-10454819D02*
X129428572Y-10407200D01*
X129428572Y-10407200D02*
X129380953Y-10359580D01*
X121833333Y-21454819D02*
X121833333Y-22169104D01*
X121833333Y-22169104D02*
X121785714Y-22311961D01*
X121785714Y-22311961D02*
X121690476Y-22407200D01*
X121690476Y-22407200D02*
X121547619Y-22454819D01*
X121547619Y-22454819D02*
X121452381Y-22454819D01*
X122071429Y-22550057D02*
X122833333Y-22550057D01*
X123023810Y-22407200D02*
X123166667Y-22454819D01*
X123166667Y-22454819D02*
X123404762Y-22454819D01*
X123404762Y-22454819D02*
X123500000Y-22407200D01*
X123500000Y-22407200D02*
X123547619Y-22359580D01*
X123547619Y-22359580D02*
X123595238Y-22264342D01*
X123595238Y-22264342D02*
X123595238Y-22169104D01*
X123595238Y-22169104D02*
X123547619Y-22073866D01*
X123547619Y-22073866D02*
X123500000Y-22026247D01*
X123500000Y-22026247D02*
X123404762Y-21978628D01*
X123404762Y-21978628D02*
X123214286Y-21931009D01*
X123214286Y-21931009D02*
X123119048Y-21883390D01*
X123119048Y-21883390D02*
X123071429Y-21835771D01*
X123071429Y-21835771D02*
X123023810Y-21740533D01*
X123023810Y-21740533D02*
X123023810Y-21645295D01*
X123023810Y-21645295D02*
X123071429Y-21550057D01*
X123071429Y-21550057D02*
X123119048Y-21502438D01*
X123119048Y-21502438D02*
X123214286Y-21454819D01*
X123214286Y-21454819D02*
X123452381Y-21454819D01*
X123452381Y-21454819D02*
X123595238Y-21502438D01*
X123928572Y-21454819D02*
X124166667Y-22454819D01*
X124166667Y-22454819D02*
X124357143Y-21740533D01*
X124357143Y-21740533D02*
X124547619Y-22454819D01*
X124547619Y-22454819D02*
X124785715Y-21454819D01*
X124928572Y-22550057D02*
X125690476Y-22550057D01*
X126500000Y-22359580D02*
X126452381Y-22407200D01*
X126452381Y-22407200D02*
X126309524Y-22454819D01*
X126309524Y-22454819D02*
X126214286Y-22454819D01*
X126214286Y-22454819D02*
X126071429Y-22407200D01*
X126071429Y-22407200D02*
X125976191Y-22311961D01*
X125976191Y-22311961D02*
X125928572Y-22216723D01*
X125928572Y-22216723D02*
X125880953Y-22026247D01*
X125880953Y-22026247D02*
X125880953Y-21883390D01*
X125880953Y-21883390D02*
X125928572Y-21692914D01*
X125928572Y-21692914D02*
X125976191Y-21597676D01*
X125976191Y-21597676D02*
X126071429Y-21502438D01*
X126071429Y-21502438D02*
X126214286Y-21454819D01*
X126214286Y-21454819D02*
X126309524Y-21454819D01*
X126309524Y-21454819D02*
X126452381Y-21502438D01*
X126452381Y-21502438D02*
X126500000Y-21550057D01*
X126928572Y-22454819D02*
X126928572Y-21454819D01*
X126928572Y-21931009D02*
X127500000Y-21931009D01*
X127500000Y-22454819D02*
X127500000Y-21454819D01*
X128452381Y-21454819D02*
X127976191Y-21454819D01*
X127976191Y-21454819D02*
X127928572Y-21931009D01*
X127928572Y-21931009D02*
X127976191Y-21883390D01*
X127976191Y-21883390D02*
X128071429Y-21835771D01*
X128071429Y-21835771D02*
X128309524Y-21835771D01*
X128309524Y-21835771D02*
X128404762Y-21883390D01*
X128404762Y-21883390D02*
X128452381Y-21931009D01*
X128452381Y-21931009D02*
X128500000Y-22026247D01*
X128500000Y-22026247D02*
X128500000Y-22264342D01*
X128500000Y-22264342D02*
X128452381Y-22359580D01*
X128452381Y-22359580D02*
X128404762Y-22407200D01*
X128404762Y-22407200D02*
X128309524Y-22454819D01*
X128309524Y-22454819D02*
X128071429Y-22454819D01*
X128071429Y-22454819D02*
X127976191Y-22407200D01*
X127976191Y-22407200D02*
X127928572Y-22359580D01*
X149190476Y-39454819D02*
X149190476Y-40169104D01*
X149190476Y-40169104D02*
X149142857Y-40311961D01*
X149142857Y-40311961D02*
X149047619Y-40407200D01*
X149047619Y-40407200D02*
X148904762Y-40454819D01*
X148904762Y-40454819D02*
X148809524Y-40454819D01*
X150190476Y-40454819D02*
X149619048Y-40454819D01*
X149904762Y-40454819D02*
X149904762Y-39454819D01*
X149904762Y-39454819D02*
X149809524Y-39597676D01*
X149809524Y-39597676D02*
X149714286Y-39692914D01*
X149714286Y-39692914D02*
X149619048Y-39740533D01*
X150809524Y-39454819D02*
X150904762Y-39454819D01*
X150904762Y-39454819D02*
X151000000Y-39502438D01*
X151000000Y-39502438D02*
X151047619Y-39550057D01*
X151047619Y-39550057D02*
X151095238Y-39645295D01*
X151095238Y-39645295D02*
X151142857Y-39835771D01*
X151142857Y-39835771D02*
X151142857Y-40073866D01*
X151142857Y-40073866D02*
X151095238Y-40264342D01*
X151095238Y-40264342D02*
X151047619Y-40359580D01*
X151047619Y-40359580D02*
X151000000Y-40407200D01*
X151000000Y-40407200D02*
X150904762Y-40454819D01*
X150904762Y-40454819D02*
X150809524Y-40454819D01*
X150809524Y-40454819D02*
X150714286Y-40407200D01*
X150714286Y-40407200D02*
X150666667Y-40359580D01*
X150666667Y-40359580D02*
X150619048Y-40264342D01*
X150619048Y-40264342D02*
X150571429Y-40073866D01*
X150571429Y-40073866D02*
X150571429Y-39835771D01*
X150571429Y-39835771D02*
X150619048Y-39645295D01*
X150619048Y-39645295D02*
X150666667Y-39550057D01*
X150666667Y-39550057D02*
X150714286Y-39502438D01*
X150714286Y-39502438D02*
X150809524Y-39454819D01*
X145380952Y-9454819D02*
X145380952Y-10169104D01*
X145380952Y-10169104D02*
X145333333Y-10311961D01*
X145333333Y-10311961D02*
X145238095Y-10407200D01*
X145238095Y-10407200D02*
X145095238Y-10454819D01*
X145095238Y-10454819D02*
X145000000Y-10454819D01*
X145619048Y-10550057D02*
X146380952Y-10550057D01*
X146619048Y-10454819D02*
X146619048Y-9454819D01*
X146619048Y-9454819D02*
X146952381Y-10169104D01*
X146952381Y-10169104D02*
X147285714Y-9454819D01*
X147285714Y-9454819D02*
X147285714Y-10454819D01*
X147952381Y-9454819D02*
X148142857Y-9454819D01*
X148142857Y-9454819D02*
X148238095Y-9502438D01*
X148238095Y-9502438D02*
X148333333Y-9597676D01*
X148333333Y-9597676D02*
X148380952Y-9788152D01*
X148380952Y-9788152D02*
X148380952Y-10121485D01*
X148380952Y-10121485D02*
X148333333Y-10311961D01*
X148333333Y-10311961D02*
X148238095Y-10407200D01*
X148238095Y-10407200D02*
X148142857Y-10454819D01*
X148142857Y-10454819D02*
X147952381Y-10454819D01*
X147952381Y-10454819D02*
X147857143Y-10407200D01*
X147857143Y-10407200D02*
X147761905Y-10311961D01*
X147761905Y-10311961D02*
X147714286Y-10121485D01*
X147714286Y-10121485D02*
X147714286Y-9788152D01*
X147714286Y-9788152D02*
X147761905Y-9597676D01*
X147761905Y-9597676D02*
X147857143Y-9502438D01*
X147857143Y-9502438D02*
X147952381Y-9454819D01*
X148666667Y-9454819D02*
X149238095Y-9454819D01*
X148952381Y-10454819D02*
X148952381Y-9454819D01*
X149761905Y-9454819D02*
X149952381Y-9454819D01*
X149952381Y-9454819D02*
X150047619Y-9502438D01*
X150047619Y-9502438D02*
X150142857Y-9597676D01*
X150142857Y-9597676D02*
X150190476Y-9788152D01*
X150190476Y-9788152D02*
X150190476Y-10121485D01*
X150190476Y-10121485D02*
X150142857Y-10311961D01*
X150142857Y-10311961D02*
X150047619Y-10407200D01*
X150047619Y-10407200D02*
X149952381Y-10454819D01*
X149952381Y-10454819D02*
X149761905Y-10454819D01*
X149761905Y-10454819D02*
X149666667Y-10407200D01*
X149666667Y-10407200D02*
X149571429Y-10311961D01*
X149571429Y-10311961D02*
X149523810Y-10121485D01*
X149523810Y-10121485D02*
X149523810Y-9788152D01*
X149523810Y-9788152D02*
X149571429Y-9597676D01*
X149571429Y-9597676D02*
X149666667Y-9502438D01*
X149666667Y-9502438D02*
X149761905Y-9454819D01*
X151190476Y-10454819D02*
X150857143Y-9978628D01*
X150619048Y-10454819D02*
X150619048Y-9454819D01*
X150619048Y-9454819D02*
X151000000Y-9454819D01*
X151000000Y-9454819D02*
X151095238Y-9502438D01*
X151095238Y-9502438D02*
X151142857Y-9550057D01*
X151142857Y-9550057D02*
X151190476Y-9645295D01*
X151190476Y-9645295D02*
X151190476Y-9788152D01*
X151190476Y-9788152D02*
X151142857Y-9883390D01*
X151142857Y-9883390D02*
X151095238Y-9931009D01*
X151095238Y-9931009D02*
X151000000Y-9978628D01*
X151000000Y-9978628D02*
X150619048Y-9978628D01*
X151380953Y-10550057D02*
X152142857Y-10550057D01*
X152952381Y-10359580D02*
X152904762Y-10407200D01*
X152904762Y-10407200D02*
X152761905Y-10454819D01*
X152761905Y-10454819D02*
X152666667Y-10454819D01*
X152666667Y-10454819D02*
X152523810Y-10407200D01*
X152523810Y-10407200D02*
X152428572Y-10311961D01*
X152428572Y-10311961D02*
X152380953Y-10216723D01*
X152380953Y-10216723D02*
X152333334Y-10026247D01*
X152333334Y-10026247D02*
X152333334Y-9883390D01*
X152333334Y-9883390D02*
X152380953Y-9692914D01*
X152380953Y-9692914D02*
X152428572Y-9597676D01*
X152428572Y-9597676D02*
X152523810Y-9502438D01*
X152523810Y-9502438D02*
X152666667Y-9454819D01*
X152666667Y-9454819D02*
X152761905Y-9454819D01*
X152761905Y-9454819D02*
X152904762Y-9502438D01*
X152904762Y-9502438D02*
X152952381Y-9550057D01*
X153380953Y-10454819D02*
X153380953Y-9454819D01*
X153380953Y-9931009D02*
X153952381Y-9931009D01*
X153952381Y-10454819D02*
X153952381Y-9454819D01*
X154857143Y-9454819D02*
X154666667Y-9454819D01*
X154666667Y-9454819D02*
X154571429Y-9502438D01*
X154571429Y-9502438D02*
X154523810Y-9550057D01*
X154523810Y-9550057D02*
X154428572Y-9692914D01*
X154428572Y-9692914D02*
X154380953Y-9883390D01*
X154380953Y-9883390D02*
X154380953Y-10264342D01*
X154380953Y-10264342D02*
X154428572Y-10359580D01*
X154428572Y-10359580D02*
X154476191Y-10407200D01*
X154476191Y-10407200D02*
X154571429Y-10454819D01*
X154571429Y-10454819D02*
X154761905Y-10454819D01*
X154761905Y-10454819D02*
X154857143Y-10407200D01*
X154857143Y-10407200D02*
X154904762Y-10359580D01*
X154904762Y-10359580D02*
X154952381Y-10264342D01*
X154952381Y-10264342D02*
X154952381Y-10026247D01*
X154952381Y-10026247D02*
X154904762Y-9931009D01*
X154904762Y-9931009D02*
X154857143Y-9883390D01*
X154857143Y-9883390D02*
X154761905Y-9835771D01*
X154761905Y-9835771D02*
X154571429Y-9835771D01*
X154571429Y-9835771D02*
X154476191Y-9883390D01*
X154476191Y-9883390D02*
X154428572Y-9931009D01*
X154428572Y-9931009D02*
X154380953Y-10026247D01*
X146833333Y-21454819D02*
X146833333Y-22169104D01*
X146833333Y-22169104D02*
X146785714Y-22311961D01*
X146785714Y-22311961D02*
X146690476Y-22407200D01*
X146690476Y-22407200D02*
X146547619Y-22454819D01*
X146547619Y-22454819D02*
X146452381Y-22454819D01*
X147071429Y-22550057D02*
X147833333Y-22550057D01*
X148023810Y-22407200D02*
X148166667Y-22454819D01*
X148166667Y-22454819D02*
X148404762Y-22454819D01*
X148404762Y-22454819D02*
X148500000Y-22407200D01*
X148500000Y-22407200D02*
X148547619Y-22359580D01*
X148547619Y-22359580D02*
X148595238Y-22264342D01*
X148595238Y-22264342D02*
X148595238Y-22169104D01*
X148595238Y-22169104D02*
X148547619Y-22073866D01*
X148547619Y-22073866D02*
X148500000Y-22026247D01*
X148500000Y-22026247D02*
X148404762Y-21978628D01*
X148404762Y-21978628D02*
X148214286Y-21931009D01*
X148214286Y-21931009D02*
X148119048Y-21883390D01*
X148119048Y-21883390D02*
X148071429Y-21835771D01*
X148071429Y-21835771D02*
X148023810Y-21740533D01*
X148023810Y-21740533D02*
X148023810Y-21645295D01*
X148023810Y-21645295D02*
X148071429Y-21550057D01*
X148071429Y-21550057D02*
X148119048Y-21502438D01*
X148119048Y-21502438D02*
X148214286Y-21454819D01*
X148214286Y-21454819D02*
X148452381Y-21454819D01*
X148452381Y-21454819D02*
X148595238Y-21502438D01*
X148928572Y-21454819D02*
X149166667Y-22454819D01*
X149166667Y-22454819D02*
X149357143Y-21740533D01*
X149357143Y-21740533D02*
X149547619Y-22454819D01*
X149547619Y-22454819D02*
X149785715Y-21454819D01*
X149928572Y-22550057D02*
X150690476Y-22550057D01*
X151500000Y-22359580D02*
X151452381Y-22407200D01*
X151452381Y-22407200D02*
X151309524Y-22454819D01*
X151309524Y-22454819D02*
X151214286Y-22454819D01*
X151214286Y-22454819D02*
X151071429Y-22407200D01*
X151071429Y-22407200D02*
X150976191Y-22311961D01*
X150976191Y-22311961D02*
X150928572Y-22216723D01*
X150928572Y-22216723D02*
X150880953Y-22026247D01*
X150880953Y-22026247D02*
X150880953Y-21883390D01*
X150880953Y-21883390D02*
X150928572Y-21692914D01*
X150928572Y-21692914D02*
X150976191Y-21597676D01*
X150976191Y-21597676D02*
X151071429Y-21502438D01*
X151071429Y-21502438D02*
X151214286Y-21454819D01*
X151214286Y-21454819D02*
X151309524Y-21454819D01*
X151309524Y-21454819D02*
X151452381Y-21502438D01*
X151452381Y-21502438D02*
X151500000Y-21550057D01*
X151928572Y-22454819D02*
X151928572Y-21454819D01*
X151928572Y-21931009D02*
X152500000Y-21931009D01*
X152500000Y-22454819D02*
X152500000Y-21454819D01*
X153404762Y-21454819D02*
X153214286Y-21454819D01*
X153214286Y-21454819D02*
X153119048Y-21502438D01*
X153119048Y-21502438D02*
X153071429Y-21550057D01*
X153071429Y-21550057D02*
X152976191Y-21692914D01*
X152976191Y-21692914D02*
X152928572Y-21883390D01*
X152928572Y-21883390D02*
X152928572Y-22264342D01*
X152928572Y-22264342D02*
X152976191Y-22359580D01*
X152976191Y-22359580D02*
X153023810Y-22407200D01*
X153023810Y-22407200D02*
X153119048Y-22454819D01*
X153119048Y-22454819D02*
X153309524Y-22454819D01*
X153309524Y-22454819D02*
X153404762Y-22407200D01*
X153404762Y-22407200D02*
X153452381Y-22359580D01*
X153452381Y-22359580D02*
X153500000Y-22264342D01*
X153500000Y-22264342D02*
X153500000Y-22026247D01*
X153500000Y-22026247D02*
X153452381Y-21931009D01*
X153452381Y-21931009D02*
X153404762Y-21883390D01*
X153404762Y-21883390D02*
X153309524Y-21835771D01*
X153309524Y-21835771D02*
X153119048Y-21835771D01*
X153119048Y-21835771D02*
X153023810Y-21883390D01*
X153023810Y-21883390D02*
X152976191Y-21931009D01*
X152976191Y-21931009D02*
X152928572Y-22026247D01*
X174190476Y-39454819D02*
X174190476Y-40169104D01*
X174190476Y-40169104D02*
X174142857Y-40311961D01*
X174142857Y-40311961D02*
X174047619Y-40407200D01*
X174047619Y-40407200D02*
X173904762Y-40454819D01*
X173904762Y-40454819D02*
X173809524Y-40454819D01*
X175190476Y-40454819D02*
X174619048Y-40454819D01*
X174904762Y-40454819D02*
X174904762Y-39454819D01*
X174904762Y-39454819D02*
X174809524Y-39597676D01*
X174809524Y-39597676D02*
X174714286Y-39692914D01*
X174714286Y-39692914D02*
X174619048Y-39740533D01*
X176142857Y-40454819D02*
X175571429Y-40454819D01*
X175857143Y-40454819D02*
X175857143Y-39454819D01*
X175857143Y-39454819D02*
X175761905Y-39597676D01*
X175761905Y-39597676D02*
X175666667Y-39692914D01*
X175666667Y-39692914D02*
X175571429Y-39740533D01*
X170380952Y-9454819D02*
X170380952Y-10169104D01*
X170380952Y-10169104D02*
X170333333Y-10311961D01*
X170333333Y-10311961D02*
X170238095Y-10407200D01*
X170238095Y-10407200D02*
X170095238Y-10454819D01*
X170095238Y-10454819D02*
X170000000Y-10454819D01*
X170619048Y-10550057D02*
X171380952Y-10550057D01*
X171619048Y-10454819D02*
X171619048Y-9454819D01*
X171619048Y-9454819D02*
X171952381Y-10169104D01*
X171952381Y-10169104D02*
X172285714Y-9454819D01*
X172285714Y-9454819D02*
X172285714Y-10454819D01*
X172952381Y-9454819D02*
X173142857Y-9454819D01*
X173142857Y-9454819D02*
X173238095Y-9502438D01*
X173238095Y-9502438D02*
X173333333Y-9597676D01*
X173333333Y-9597676D02*
X173380952Y-9788152D01*
X173380952Y-9788152D02*
X173380952Y-10121485D01*
X173380952Y-10121485D02*
X173333333Y-10311961D01*
X173333333Y-10311961D02*
X173238095Y-10407200D01*
X173238095Y-10407200D02*
X173142857Y-10454819D01*
X173142857Y-10454819D02*
X172952381Y-10454819D01*
X172952381Y-10454819D02*
X172857143Y-10407200D01*
X172857143Y-10407200D02*
X172761905Y-10311961D01*
X172761905Y-10311961D02*
X172714286Y-10121485D01*
X172714286Y-10121485D02*
X172714286Y-9788152D01*
X172714286Y-9788152D02*
X172761905Y-9597676D01*
X172761905Y-9597676D02*
X172857143Y-9502438D01*
X172857143Y-9502438D02*
X172952381Y-9454819D01*
X173666667Y-9454819D02*
X174238095Y-9454819D01*
X173952381Y-10454819D02*
X173952381Y-9454819D01*
X174761905Y-9454819D02*
X174952381Y-9454819D01*
X174952381Y-9454819D02*
X175047619Y-9502438D01*
X175047619Y-9502438D02*
X175142857Y-9597676D01*
X175142857Y-9597676D02*
X175190476Y-9788152D01*
X175190476Y-9788152D02*
X175190476Y-10121485D01*
X175190476Y-10121485D02*
X175142857Y-10311961D01*
X175142857Y-10311961D02*
X175047619Y-10407200D01*
X175047619Y-10407200D02*
X174952381Y-10454819D01*
X174952381Y-10454819D02*
X174761905Y-10454819D01*
X174761905Y-10454819D02*
X174666667Y-10407200D01*
X174666667Y-10407200D02*
X174571429Y-10311961D01*
X174571429Y-10311961D02*
X174523810Y-10121485D01*
X174523810Y-10121485D02*
X174523810Y-9788152D01*
X174523810Y-9788152D02*
X174571429Y-9597676D01*
X174571429Y-9597676D02*
X174666667Y-9502438D01*
X174666667Y-9502438D02*
X174761905Y-9454819D01*
X176190476Y-10454819D02*
X175857143Y-9978628D01*
X175619048Y-10454819D02*
X175619048Y-9454819D01*
X175619048Y-9454819D02*
X176000000Y-9454819D01*
X176000000Y-9454819D02*
X176095238Y-9502438D01*
X176095238Y-9502438D02*
X176142857Y-9550057D01*
X176142857Y-9550057D02*
X176190476Y-9645295D01*
X176190476Y-9645295D02*
X176190476Y-9788152D01*
X176190476Y-9788152D02*
X176142857Y-9883390D01*
X176142857Y-9883390D02*
X176095238Y-9931009D01*
X176095238Y-9931009D02*
X176000000Y-9978628D01*
X176000000Y-9978628D02*
X175619048Y-9978628D01*
X176380953Y-10550057D02*
X177142857Y-10550057D01*
X177952381Y-10359580D02*
X177904762Y-10407200D01*
X177904762Y-10407200D02*
X177761905Y-10454819D01*
X177761905Y-10454819D02*
X177666667Y-10454819D01*
X177666667Y-10454819D02*
X177523810Y-10407200D01*
X177523810Y-10407200D02*
X177428572Y-10311961D01*
X177428572Y-10311961D02*
X177380953Y-10216723D01*
X177380953Y-10216723D02*
X177333334Y-10026247D01*
X177333334Y-10026247D02*
X177333334Y-9883390D01*
X177333334Y-9883390D02*
X177380953Y-9692914D01*
X177380953Y-9692914D02*
X177428572Y-9597676D01*
X177428572Y-9597676D02*
X177523810Y-9502438D01*
X177523810Y-9502438D02*
X177666667Y-9454819D01*
X177666667Y-9454819D02*
X177761905Y-9454819D01*
X177761905Y-9454819D02*
X177904762Y-9502438D01*
X177904762Y-9502438D02*
X177952381Y-9550057D01*
X178380953Y-10454819D02*
X178380953Y-9454819D01*
X178380953Y-9931009D02*
X178952381Y-9931009D01*
X178952381Y-10454819D02*
X178952381Y-9454819D01*
X179333334Y-9454819D02*
X180000000Y-9454819D01*
X180000000Y-9454819D02*
X179571429Y-10454819D01*
X171833333Y-21454819D02*
X171833333Y-22169104D01*
X171833333Y-22169104D02*
X171785714Y-22311961D01*
X171785714Y-22311961D02*
X171690476Y-22407200D01*
X171690476Y-22407200D02*
X171547619Y-22454819D01*
X171547619Y-22454819D02*
X171452381Y-22454819D01*
X172071429Y-22550057D02*
X172833333Y-22550057D01*
X173023810Y-22407200D02*
X173166667Y-22454819D01*
X173166667Y-22454819D02*
X173404762Y-22454819D01*
X173404762Y-22454819D02*
X173500000Y-22407200D01*
X173500000Y-22407200D02*
X173547619Y-22359580D01*
X173547619Y-22359580D02*
X173595238Y-22264342D01*
X173595238Y-22264342D02*
X173595238Y-22169104D01*
X173595238Y-22169104D02*
X173547619Y-22073866D01*
X173547619Y-22073866D02*
X173500000Y-22026247D01*
X173500000Y-22026247D02*
X173404762Y-21978628D01*
X173404762Y-21978628D02*
X173214286Y-21931009D01*
X173214286Y-21931009D02*
X173119048Y-21883390D01*
X173119048Y-21883390D02*
X173071429Y-21835771D01*
X173071429Y-21835771D02*
X173023810Y-21740533D01*
X173023810Y-21740533D02*
X173023810Y-21645295D01*
X173023810Y-21645295D02*
X173071429Y-21550057D01*
X173071429Y-21550057D02*
X173119048Y-21502438D01*
X173119048Y-21502438D02*
X173214286Y-21454819D01*
X173214286Y-21454819D02*
X173452381Y-21454819D01*
X173452381Y-21454819D02*
X173595238Y-21502438D01*
X173928572Y-21454819D02*
X174166667Y-22454819D01*
X174166667Y-22454819D02*
X174357143Y-21740533D01*
X174357143Y-21740533D02*
X174547619Y-22454819D01*
X174547619Y-22454819D02*
X174785715Y-21454819D01*
X174928572Y-22550057D02*
X175690476Y-22550057D01*
X176500000Y-22359580D02*
X176452381Y-22407200D01*
X176452381Y-22407200D02*
X176309524Y-22454819D01*
X176309524Y-22454819D02*
X176214286Y-22454819D01*
X176214286Y-22454819D02*
X176071429Y-22407200D01*
X176071429Y-22407200D02*
X175976191Y-22311961D01*
X175976191Y-22311961D02*
X175928572Y-22216723D01*
X175928572Y-22216723D02*
X175880953Y-22026247D01*
X175880953Y-22026247D02*
X175880953Y-21883390D01*
X175880953Y-21883390D02*
X175928572Y-21692914D01*
X175928572Y-21692914D02*
X175976191Y-21597676D01*
X175976191Y-21597676D02*
X176071429Y-21502438D01*
X176071429Y-21502438D02*
X176214286Y-21454819D01*
X176214286Y-21454819D02*
X176309524Y-21454819D01*
X176309524Y-21454819D02*
X176452381Y-21502438D01*
X176452381Y-21502438D02*
X176500000Y-21550057D01*
X176928572Y-22454819D02*
X176928572Y-21454819D01*
X176928572Y-21931009D02*
X177500000Y-21931009D01*
X177500000Y-22454819D02*
X177500000Y-21454819D01*
X177880953Y-21454819D02*
X178547619Y-21454819D01*
X178547619Y-21454819D02*
X178119048Y-22454819D01*
X24190476Y-99454819D02*
X24190476Y-100169104D01*
X24190476Y-100169104D02*
X24142857Y-100311961D01*
X24142857Y-100311961D02*
X24047619Y-100407200D01*
X24047619Y-100407200D02*
X23904762Y-100454819D01*
X23904762Y-100454819D02*
X23809524Y-100454819D01*
X25190476Y-100454819D02*
X24619048Y-100454819D01*
X24904762Y-100454819D02*
X24904762Y-99454819D01*
X24904762Y-99454819D02*
X24809524Y-99597676D01*
X24809524Y-99597676D02*
X24714286Y-99692914D01*
X24714286Y-99692914D02*
X24619048Y-99740533D01*
X25571429Y-99550057D02*
X25619048Y-99502438D01*
X25619048Y-99502438D02*
X25714286Y-99454819D01*
X25714286Y-99454819D02*
X25952381Y-99454819D01*
X25952381Y-99454819D02*
X26047619Y-99502438D01*
X26047619Y-99502438D02*
X26095238Y-99550057D01*
X26095238Y-99550057D02*
X26142857Y-99645295D01*
X26142857Y-99645295D02*
X26142857Y-99740533D01*
X26142857Y-99740533D02*
X26095238Y-99883390D01*
X26095238Y-99883390D02*
X25523810Y-100454819D01*
X25523810Y-100454819D02*
X26142857Y-100454819D01*
X20380952Y-129454819D02*
X20380952Y-130169104D01*
X20380952Y-130169104D02*
X20333333Y-130311961D01*
X20333333Y-130311961D02*
X20238095Y-130407200D01*
X20238095Y-130407200D02*
X20095238Y-130454819D01*
X20095238Y-130454819D02*
X20000000Y-130454819D01*
X20619048Y-130550057D02*
X21380952Y-130550057D01*
X21619048Y-130454819D02*
X21619048Y-129454819D01*
X21619048Y-129454819D02*
X21952381Y-130169104D01*
X21952381Y-130169104D02*
X22285714Y-129454819D01*
X22285714Y-129454819D02*
X22285714Y-130454819D01*
X22952381Y-129454819D02*
X23142857Y-129454819D01*
X23142857Y-129454819D02*
X23238095Y-129502438D01*
X23238095Y-129502438D02*
X23333333Y-129597676D01*
X23333333Y-129597676D02*
X23380952Y-129788152D01*
X23380952Y-129788152D02*
X23380952Y-130121485D01*
X23380952Y-130121485D02*
X23333333Y-130311961D01*
X23333333Y-130311961D02*
X23238095Y-130407200D01*
X23238095Y-130407200D02*
X23142857Y-130454819D01*
X23142857Y-130454819D02*
X22952381Y-130454819D01*
X22952381Y-130454819D02*
X22857143Y-130407200D01*
X22857143Y-130407200D02*
X22761905Y-130311961D01*
X22761905Y-130311961D02*
X22714286Y-130121485D01*
X22714286Y-130121485D02*
X22714286Y-129788152D01*
X22714286Y-129788152D02*
X22761905Y-129597676D01*
X22761905Y-129597676D02*
X22857143Y-129502438D01*
X22857143Y-129502438D02*
X22952381Y-129454819D01*
X23666667Y-129454819D02*
X24238095Y-129454819D01*
X23952381Y-130454819D02*
X23952381Y-129454819D01*
X24761905Y-129454819D02*
X24952381Y-129454819D01*
X24952381Y-129454819D02*
X25047619Y-129502438D01*
X25047619Y-129502438D02*
X25142857Y-129597676D01*
X25142857Y-129597676D02*
X25190476Y-129788152D01*
X25190476Y-129788152D02*
X25190476Y-130121485D01*
X25190476Y-130121485D02*
X25142857Y-130311961D01*
X25142857Y-130311961D02*
X25047619Y-130407200D01*
X25047619Y-130407200D02*
X24952381Y-130454819D01*
X24952381Y-130454819D02*
X24761905Y-130454819D01*
X24761905Y-130454819D02*
X24666667Y-130407200D01*
X24666667Y-130407200D02*
X24571429Y-130311961D01*
X24571429Y-130311961D02*
X24523810Y-130121485D01*
X24523810Y-130121485D02*
X24523810Y-129788152D01*
X24523810Y-129788152D02*
X24571429Y-129597676D01*
X24571429Y-129597676D02*
X24666667Y-129502438D01*
X24666667Y-129502438D02*
X24761905Y-129454819D01*
X26190476Y-130454819D02*
X25857143Y-129978628D01*
X25619048Y-130454819D02*
X25619048Y-129454819D01*
X25619048Y-129454819D02*
X26000000Y-129454819D01*
X26000000Y-129454819D02*
X26095238Y-129502438D01*
X26095238Y-129502438D02*
X26142857Y-129550057D01*
X26142857Y-129550057D02*
X26190476Y-129645295D01*
X26190476Y-129645295D02*
X26190476Y-129788152D01*
X26190476Y-129788152D02*
X26142857Y-129883390D01*
X26142857Y-129883390D02*
X26095238Y-129931009D01*
X26095238Y-129931009D02*
X26000000Y-129978628D01*
X26000000Y-129978628D02*
X25619048Y-129978628D01*
X26380953Y-130550057D02*
X27142857Y-130550057D01*
X27952381Y-130359580D02*
X27904762Y-130407200D01*
X27904762Y-130407200D02*
X27761905Y-130454819D01*
X27761905Y-130454819D02*
X27666667Y-130454819D01*
X27666667Y-130454819D02*
X27523810Y-130407200D01*
X27523810Y-130407200D02*
X27428572Y-130311961D01*
X27428572Y-130311961D02*
X27380953Y-130216723D01*
X27380953Y-130216723D02*
X27333334Y-130026247D01*
X27333334Y-130026247D02*
X27333334Y-129883390D01*
X27333334Y-129883390D02*
X27380953Y-129692914D01*
X27380953Y-129692914D02*
X27428572Y-129597676D01*
X27428572Y-129597676D02*
X27523810Y-129502438D01*
X27523810Y-129502438D02*
X27666667Y-129454819D01*
X27666667Y-129454819D02*
X27761905Y-129454819D01*
X27761905Y-129454819D02*
X27904762Y-129502438D01*
X27904762Y-129502438D02*
X27952381Y-129550057D01*
X28380953Y-130454819D02*
X28380953Y-129454819D01*
X28380953Y-129931009D02*
X28952381Y-129931009D01*
X28952381Y-130454819D02*
X28952381Y-129454819D01*
X29571429Y-129883390D02*
X29476191Y-129835771D01*
X29476191Y-129835771D02*
X29428572Y-129788152D01*
X29428572Y-129788152D02*
X29380953Y-129692914D01*
X29380953Y-129692914D02*
X29380953Y-129645295D01*
X29380953Y-129645295D02*
X29428572Y-129550057D01*
X29428572Y-129550057D02*
X29476191Y-129502438D01*
X29476191Y-129502438D02*
X29571429Y-129454819D01*
X29571429Y-129454819D02*
X29761905Y-129454819D01*
X29761905Y-129454819D02*
X29857143Y-129502438D01*
X29857143Y-129502438D02*
X29904762Y-129550057D01*
X29904762Y-129550057D02*
X29952381Y-129645295D01*
X29952381Y-129645295D02*
X29952381Y-129692914D01*
X29952381Y-129692914D02*
X29904762Y-129788152D01*
X29904762Y-129788152D02*
X29857143Y-129835771D01*
X29857143Y-129835771D02*
X29761905Y-129883390D01*
X29761905Y-129883390D02*
X29571429Y-129883390D01*
X29571429Y-129883390D02*
X29476191Y-129931009D01*
X29476191Y-129931009D02*
X29428572Y-129978628D01*
X29428572Y-129978628D02*
X29380953Y-130073866D01*
X29380953Y-130073866D02*
X29380953Y-130264342D01*
X29380953Y-130264342D02*
X29428572Y-130359580D01*
X29428572Y-130359580D02*
X29476191Y-130407200D01*
X29476191Y-130407200D02*
X29571429Y-130454819D01*
X29571429Y-130454819D02*
X29761905Y-130454819D01*
X29761905Y-130454819D02*
X29857143Y-130407200D01*
X29857143Y-130407200D02*
X29904762Y-130359580D01*
X29904762Y-130359580D02*
X29952381Y-130264342D01*
X29952381Y-130264342D02*
X29952381Y-130073866D01*
X29952381Y-130073866D02*
X29904762Y-129978628D01*
X29904762Y-129978628D02*
X29857143Y-129931009D01*
X29857143Y-129931009D02*
X29761905Y-129883390D01*
X21833333Y-117454819D02*
X21833333Y-118169104D01*
X21833333Y-118169104D02*
X21785714Y-118311961D01*
X21785714Y-118311961D02*
X21690476Y-118407200D01*
X21690476Y-118407200D02*
X21547619Y-118454819D01*
X21547619Y-118454819D02*
X21452381Y-118454819D01*
X22071429Y-118550057D02*
X22833333Y-118550057D01*
X23023810Y-118407200D02*
X23166667Y-118454819D01*
X23166667Y-118454819D02*
X23404762Y-118454819D01*
X23404762Y-118454819D02*
X23500000Y-118407200D01*
X23500000Y-118407200D02*
X23547619Y-118359580D01*
X23547619Y-118359580D02*
X23595238Y-118264342D01*
X23595238Y-118264342D02*
X23595238Y-118169104D01*
X23595238Y-118169104D02*
X23547619Y-118073866D01*
X23547619Y-118073866D02*
X23500000Y-118026247D01*
X23500000Y-118026247D02*
X23404762Y-117978628D01*
X23404762Y-117978628D02*
X23214286Y-117931009D01*
X23214286Y-117931009D02*
X23119048Y-117883390D01*
X23119048Y-117883390D02*
X23071429Y-117835771D01*
X23071429Y-117835771D02*
X23023810Y-117740533D01*
X23023810Y-117740533D02*
X23023810Y-117645295D01*
X23023810Y-117645295D02*
X23071429Y-117550057D01*
X23071429Y-117550057D02*
X23119048Y-117502438D01*
X23119048Y-117502438D02*
X23214286Y-117454819D01*
X23214286Y-117454819D02*
X23452381Y-117454819D01*
X23452381Y-117454819D02*
X23595238Y-117502438D01*
X23928572Y-117454819D02*
X24166667Y-118454819D01*
X24166667Y-118454819D02*
X24357143Y-117740533D01*
X24357143Y-117740533D02*
X24547619Y-118454819D01*
X24547619Y-118454819D02*
X24785715Y-117454819D01*
X24928572Y-118550057D02*
X25690476Y-118550057D01*
X26500000Y-118359580D02*
X26452381Y-118407200D01*
X26452381Y-118407200D02*
X26309524Y-118454819D01*
X26309524Y-118454819D02*
X26214286Y-118454819D01*
X26214286Y-118454819D02*
X26071429Y-118407200D01*
X26071429Y-118407200D02*
X25976191Y-118311961D01*
X25976191Y-118311961D02*
X25928572Y-118216723D01*
X25928572Y-118216723D02*
X25880953Y-118026247D01*
X25880953Y-118026247D02*
X25880953Y-117883390D01*
X25880953Y-117883390D02*
X25928572Y-117692914D01*
X25928572Y-117692914D02*
X25976191Y-117597676D01*
X25976191Y-117597676D02*
X26071429Y-117502438D01*
X26071429Y-117502438D02*
X26214286Y-117454819D01*
X26214286Y-117454819D02*
X26309524Y-117454819D01*
X26309524Y-117454819D02*
X26452381Y-117502438D01*
X26452381Y-117502438D02*
X26500000Y-117550057D01*
X26928572Y-118454819D02*
X26928572Y-117454819D01*
X26928572Y-117931009D02*
X27500000Y-117931009D01*
X27500000Y-118454819D02*
X27500000Y-117454819D01*
X28119048Y-117883390D02*
X28023810Y-117835771D01*
X28023810Y-117835771D02*
X27976191Y-117788152D01*
X27976191Y-117788152D02*
X27928572Y-117692914D01*
X27928572Y-117692914D02*
X27928572Y-117645295D01*
X27928572Y-117645295D02*
X27976191Y-117550057D01*
X27976191Y-117550057D02*
X28023810Y-117502438D01*
X28023810Y-117502438D02*
X28119048Y-117454819D01*
X28119048Y-117454819D02*
X28309524Y-117454819D01*
X28309524Y-117454819D02*
X28404762Y-117502438D01*
X28404762Y-117502438D02*
X28452381Y-117550057D01*
X28452381Y-117550057D02*
X28500000Y-117645295D01*
X28500000Y-117645295D02*
X28500000Y-117692914D01*
X28500000Y-117692914D02*
X28452381Y-117788152D01*
X28452381Y-117788152D02*
X28404762Y-117835771D01*
X28404762Y-117835771D02*
X28309524Y-117883390D01*
X28309524Y-117883390D02*
X28119048Y-117883390D01*
X28119048Y-117883390D02*
X28023810Y-117931009D01*
X28023810Y-117931009D02*
X27976191Y-117978628D01*
X27976191Y-117978628D02*
X27928572Y-118073866D01*
X27928572Y-118073866D02*
X27928572Y-118264342D01*
X27928572Y-118264342D02*
X27976191Y-118359580D01*
X27976191Y-118359580D02*
X28023810Y-118407200D01*
X28023810Y-118407200D02*
X28119048Y-118454819D01*
X28119048Y-118454819D02*
X28309524Y-118454819D01*
X28309524Y-118454819D02*
X28404762Y-118407200D01*
X28404762Y-118407200D02*
X28452381Y-118359580D01*
X28452381Y-118359580D02*
X28500000Y-118264342D01*
X28500000Y-118264342D02*
X28500000Y-118073866D01*
X28500000Y-118073866D02*
X28452381Y-117978628D01*
X28452381Y-117978628D02*
X28404762Y-117931009D01*
X28404762Y-117931009D02*
X28309524Y-117883390D01*
X49190476Y-99454819D02*
X49190476Y-100169104D01*
X49190476Y-100169104D02*
X49142857Y-100311961D01*
X49142857Y-100311961D02*
X49047619Y-100407200D01*
X49047619Y-100407200D02*
X48904762Y-100454819D01*
X48904762Y-100454819D02*
X48809524Y-100454819D01*
X50190476Y-100454819D02*
X49619048Y-100454819D01*
X49904762Y-100454819D02*
X49904762Y-99454819D01*
X49904762Y-99454819D02*
X49809524Y-99597676D01*
X49809524Y-99597676D02*
X49714286Y-99692914D01*
X49714286Y-99692914D02*
X49619048Y-99740533D01*
X50523810Y-99454819D02*
X51142857Y-99454819D01*
X51142857Y-99454819D02*
X50809524Y-99835771D01*
X50809524Y-99835771D02*
X50952381Y-99835771D01*
X50952381Y-99835771D02*
X51047619Y-99883390D01*
X51047619Y-99883390D02*
X51095238Y-99931009D01*
X51095238Y-99931009D02*
X51142857Y-100026247D01*
X51142857Y-100026247D02*
X51142857Y-100264342D01*
X51142857Y-100264342D02*
X51095238Y-100359580D01*
X51095238Y-100359580D02*
X51047619Y-100407200D01*
X51047619Y-100407200D02*
X50952381Y-100454819D01*
X50952381Y-100454819D02*
X50666667Y-100454819D01*
X50666667Y-100454819D02*
X50571429Y-100407200D01*
X50571429Y-100407200D02*
X50523810Y-100359580D01*
X45380952Y-129454819D02*
X45380952Y-130169104D01*
X45380952Y-130169104D02*
X45333333Y-130311961D01*
X45333333Y-130311961D02*
X45238095Y-130407200D01*
X45238095Y-130407200D02*
X45095238Y-130454819D01*
X45095238Y-130454819D02*
X45000000Y-130454819D01*
X45619048Y-130550057D02*
X46380952Y-130550057D01*
X46619048Y-130454819D02*
X46619048Y-129454819D01*
X46619048Y-129454819D02*
X46952381Y-130169104D01*
X46952381Y-130169104D02*
X47285714Y-129454819D01*
X47285714Y-129454819D02*
X47285714Y-130454819D01*
X47952381Y-129454819D02*
X48142857Y-129454819D01*
X48142857Y-129454819D02*
X48238095Y-129502438D01*
X48238095Y-129502438D02*
X48333333Y-129597676D01*
X48333333Y-129597676D02*
X48380952Y-129788152D01*
X48380952Y-129788152D02*
X48380952Y-130121485D01*
X48380952Y-130121485D02*
X48333333Y-130311961D01*
X48333333Y-130311961D02*
X48238095Y-130407200D01*
X48238095Y-130407200D02*
X48142857Y-130454819D01*
X48142857Y-130454819D02*
X47952381Y-130454819D01*
X47952381Y-130454819D02*
X47857143Y-130407200D01*
X47857143Y-130407200D02*
X47761905Y-130311961D01*
X47761905Y-130311961D02*
X47714286Y-130121485D01*
X47714286Y-130121485D02*
X47714286Y-129788152D01*
X47714286Y-129788152D02*
X47761905Y-129597676D01*
X47761905Y-129597676D02*
X47857143Y-129502438D01*
X47857143Y-129502438D02*
X47952381Y-129454819D01*
X48666667Y-129454819D02*
X49238095Y-129454819D01*
X48952381Y-130454819D02*
X48952381Y-129454819D01*
X49761905Y-129454819D02*
X49952381Y-129454819D01*
X49952381Y-129454819D02*
X50047619Y-129502438D01*
X50047619Y-129502438D02*
X50142857Y-129597676D01*
X50142857Y-129597676D02*
X50190476Y-129788152D01*
X50190476Y-129788152D02*
X50190476Y-130121485D01*
X50190476Y-130121485D02*
X50142857Y-130311961D01*
X50142857Y-130311961D02*
X50047619Y-130407200D01*
X50047619Y-130407200D02*
X49952381Y-130454819D01*
X49952381Y-130454819D02*
X49761905Y-130454819D01*
X49761905Y-130454819D02*
X49666667Y-130407200D01*
X49666667Y-130407200D02*
X49571429Y-130311961D01*
X49571429Y-130311961D02*
X49523810Y-130121485D01*
X49523810Y-130121485D02*
X49523810Y-129788152D01*
X49523810Y-129788152D02*
X49571429Y-129597676D01*
X49571429Y-129597676D02*
X49666667Y-129502438D01*
X49666667Y-129502438D02*
X49761905Y-129454819D01*
X51190476Y-130454819D02*
X50857143Y-129978628D01*
X50619048Y-130454819D02*
X50619048Y-129454819D01*
X50619048Y-129454819D02*
X51000000Y-129454819D01*
X51000000Y-129454819D02*
X51095238Y-129502438D01*
X51095238Y-129502438D02*
X51142857Y-129550057D01*
X51142857Y-129550057D02*
X51190476Y-129645295D01*
X51190476Y-129645295D02*
X51190476Y-129788152D01*
X51190476Y-129788152D02*
X51142857Y-129883390D01*
X51142857Y-129883390D02*
X51095238Y-129931009D01*
X51095238Y-129931009D02*
X51000000Y-129978628D01*
X51000000Y-129978628D02*
X50619048Y-129978628D01*
X51380953Y-130550057D02*
X52142857Y-130550057D01*
X52952381Y-130359580D02*
X52904762Y-130407200D01*
X52904762Y-130407200D02*
X52761905Y-130454819D01*
X52761905Y-130454819D02*
X52666667Y-130454819D01*
X52666667Y-130454819D02*
X52523810Y-130407200D01*
X52523810Y-130407200D02*
X52428572Y-130311961D01*
X52428572Y-130311961D02*
X52380953Y-130216723D01*
X52380953Y-130216723D02*
X52333334Y-130026247D01*
X52333334Y-130026247D02*
X52333334Y-129883390D01*
X52333334Y-129883390D02*
X52380953Y-129692914D01*
X52380953Y-129692914D02*
X52428572Y-129597676D01*
X52428572Y-129597676D02*
X52523810Y-129502438D01*
X52523810Y-129502438D02*
X52666667Y-129454819D01*
X52666667Y-129454819D02*
X52761905Y-129454819D01*
X52761905Y-129454819D02*
X52904762Y-129502438D01*
X52904762Y-129502438D02*
X52952381Y-129550057D01*
X53380953Y-130454819D02*
X53380953Y-129454819D01*
X53380953Y-129931009D02*
X53952381Y-129931009D01*
X53952381Y-130454819D02*
X53952381Y-129454819D01*
X54476191Y-130454819D02*
X54666667Y-130454819D01*
X54666667Y-130454819D02*
X54761905Y-130407200D01*
X54761905Y-130407200D02*
X54809524Y-130359580D01*
X54809524Y-130359580D02*
X54904762Y-130216723D01*
X54904762Y-130216723D02*
X54952381Y-130026247D01*
X54952381Y-130026247D02*
X54952381Y-129645295D01*
X54952381Y-129645295D02*
X54904762Y-129550057D01*
X54904762Y-129550057D02*
X54857143Y-129502438D01*
X54857143Y-129502438D02*
X54761905Y-129454819D01*
X54761905Y-129454819D02*
X54571429Y-129454819D01*
X54571429Y-129454819D02*
X54476191Y-129502438D01*
X54476191Y-129502438D02*
X54428572Y-129550057D01*
X54428572Y-129550057D02*
X54380953Y-129645295D01*
X54380953Y-129645295D02*
X54380953Y-129883390D01*
X54380953Y-129883390D02*
X54428572Y-129978628D01*
X54428572Y-129978628D02*
X54476191Y-130026247D01*
X54476191Y-130026247D02*
X54571429Y-130073866D01*
X54571429Y-130073866D02*
X54761905Y-130073866D01*
X54761905Y-130073866D02*
X54857143Y-130026247D01*
X54857143Y-130026247D02*
X54904762Y-129978628D01*
X54904762Y-129978628D02*
X54952381Y-129883390D01*
X46833333Y-117454819D02*
X46833333Y-118169104D01*
X46833333Y-118169104D02*
X46785714Y-118311961D01*
X46785714Y-118311961D02*
X46690476Y-118407200D01*
X46690476Y-118407200D02*
X46547619Y-118454819D01*
X46547619Y-118454819D02*
X46452381Y-118454819D01*
X47071429Y-118550057D02*
X47833333Y-118550057D01*
X48023810Y-118407200D02*
X48166667Y-118454819D01*
X48166667Y-118454819D02*
X48404762Y-118454819D01*
X48404762Y-118454819D02*
X48500000Y-118407200D01*
X48500000Y-118407200D02*
X48547619Y-118359580D01*
X48547619Y-118359580D02*
X48595238Y-118264342D01*
X48595238Y-118264342D02*
X48595238Y-118169104D01*
X48595238Y-118169104D02*
X48547619Y-118073866D01*
X48547619Y-118073866D02*
X48500000Y-118026247D01*
X48500000Y-118026247D02*
X48404762Y-117978628D01*
X48404762Y-117978628D02*
X48214286Y-117931009D01*
X48214286Y-117931009D02*
X48119048Y-117883390D01*
X48119048Y-117883390D02*
X48071429Y-117835771D01*
X48071429Y-117835771D02*
X48023810Y-117740533D01*
X48023810Y-117740533D02*
X48023810Y-117645295D01*
X48023810Y-117645295D02*
X48071429Y-117550057D01*
X48071429Y-117550057D02*
X48119048Y-117502438D01*
X48119048Y-117502438D02*
X48214286Y-117454819D01*
X48214286Y-117454819D02*
X48452381Y-117454819D01*
X48452381Y-117454819D02*
X48595238Y-117502438D01*
X48928572Y-117454819D02*
X49166667Y-118454819D01*
X49166667Y-118454819D02*
X49357143Y-117740533D01*
X49357143Y-117740533D02*
X49547619Y-118454819D01*
X49547619Y-118454819D02*
X49785715Y-117454819D01*
X49928572Y-118550057D02*
X50690476Y-118550057D01*
X51500000Y-118359580D02*
X51452381Y-118407200D01*
X51452381Y-118407200D02*
X51309524Y-118454819D01*
X51309524Y-118454819D02*
X51214286Y-118454819D01*
X51214286Y-118454819D02*
X51071429Y-118407200D01*
X51071429Y-118407200D02*
X50976191Y-118311961D01*
X50976191Y-118311961D02*
X50928572Y-118216723D01*
X50928572Y-118216723D02*
X50880953Y-118026247D01*
X50880953Y-118026247D02*
X50880953Y-117883390D01*
X50880953Y-117883390D02*
X50928572Y-117692914D01*
X50928572Y-117692914D02*
X50976191Y-117597676D01*
X50976191Y-117597676D02*
X51071429Y-117502438D01*
X51071429Y-117502438D02*
X51214286Y-117454819D01*
X51214286Y-117454819D02*
X51309524Y-117454819D01*
X51309524Y-117454819D02*
X51452381Y-117502438D01*
X51452381Y-117502438D02*
X51500000Y-117550057D01*
X51928572Y-118454819D02*
X51928572Y-117454819D01*
X51928572Y-117931009D02*
X52500000Y-117931009D01*
X52500000Y-118454819D02*
X52500000Y-117454819D01*
X53023810Y-118454819D02*
X53214286Y-118454819D01*
X53214286Y-118454819D02*
X53309524Y-118407200D01*
X53309524Y-118407200D02*
X53357143Y-118359580D01*
X53357143Y-118359580D02*
X53452381Y-118216723D01*
X53452381Y-118216723D02*
X53500000Y-118026247D01*
X53500000Y-118026247D02*
X53500000Y-117645295D01*
X53500000Y-117645295D02*
X53452381Y-117550057D01*
X53452381Y-117550057D02*
X53404762Y-117502438D01*
X53404762Y-117502438D02*
X53309524Y-117454819D01*
X53309524Y-117454819D02*
X53119048Y-117454819D01*
X53119048Y-117454819D02*
X53023810Y-117502438D01*
X53023810Y-117502438D02*
X52976191Y-117550057D01*
X52976191Y-117550057D02*
X52928572Y-117645295D01*
X52928572Y-117645295D02*
X52928572Y-117883390D01*
X52928572Y-117883390D02*
X52976191Y-117978628D01*
X52976191Y-117978628D02*
X53023810Y-118026247D01*
X53023810Y-118026247D02*
X53119048Y-118073866D01*
X53119048Y-118073866D02*
X53309524Y-118073866D01*
X53309524Y-118073866D02*
X53404762Y-118026247D01*
X53404762Y-118026247D02*
X53452381Y-117978628D01*
X53452381Y-117978628D02*
X53500000Y-117883390D01*
X74190476Y-99454819D02*
X74190476Y-100169104D01*
X74190476Y-100169104D02*
X74142857Y-100311961D01*
X74142857Y-100311961D02*
X74047619Y-100407200D01*
X74047619Y-100407200D02*
X73904762Y-100454819D01*
X73904762Y-100454819D02*
X73809524Y-100454819D01*
X75190476Y-100454819D02*
X74619048Y-100454819D01*
X74904762Y-100454819D02*
X74904762Y-99454819D01*
X74904762Y-99454819D02*
X74809524Y-99597676D01*
X74809524Y-99597676D02*
X74714286Y-99692914D01*
X74714286Y-99692914D02*
X74619048Y-99740533D01*
X76047619Y-99788152D02*
X76047619Y-100454819D01*
X75809524Y-99407200D02*
X75571429Y-100121485D01*
X75571429Y-100121485D02*
X76190476Y-100121485D01*
X69904761Y-129454819D02*
X69904761Y-130169104D01*
X69904761Y-130169104D02*
X69857142Y-130311961D01*
X69857142Y-130311961D02*
X69761904Y-130407200D01*
X69761904Y-130407200D02*
X69619047Y-130454819D01*
X69619047Y-130454819D02*
X69523809Y-130454819D01*
X70142857Y-130550057D02*
X70904761Y-130550057D01*
X71142857Y-130454819D02*
X71142857Y-129454819D01*
X71142857Y-129454819D02*
X71476190Y-130169104D01*
X71476190Y-130169104D02*
X71809523Y-129454819D01*
X71809523Y-129454819D02*
X71809523Y-130454819D01*
X72476190Y-129454819D02*
X72666666Y-129454819D01*
X72666666Y-129454819D02*
X72761904Y-129502438D01*
X72761904Y-129502438D02*
X72857142Y-129597676D01*
X72857142Y-129597676D02*
X72904761Y-129788152D01*
X72904761Y-129788152D02*
X72904761Y-130121485D01*
X72904761Y-130121485D02*
X72857142Y-130311961D01*
X72857142Y-130311961D02*
X72761904Y-130407200D01*
X72761904Y-130407200D02*
X72666666Y-130454819D01*
X72666666Y-130454819D02*
X72476190Y-130454819D01*
X72476190Y-130454819D02*
X72380952Y-130407200D01*
X72380952Y-130407200D02*
X72285714Y-130311961D01*
X72285714Y-130311961D02*
X72238095Y-130121485D01*
X72238095Y-130121485D02*
X72238095Y-129788152D01*
X72238095Y-129788152D02*
X72285714Y-129597676D01*
X72285714Y-129597676D02*
X72380952Y-129502438D01*
X72380952Y-129502438D02*
X72476190Y-129454819D01*
X73190476Y-129454819D02*
X73761904Y-129454819D01*
X73476190Y-130454819D02*
X73476190Y-129454819D01*
X74285714Y-129454819D02*
X74476190Y-129454819D01*
X74476190Y-129454819D02*
X74571428Y-129502438D01*
X74571428Y-129502438D02*
X74666666Y-129597676D01*
X74666666Y-129597676D02*
X74714285Y-129788152D01*
X74714285Y-129788152D02*
X74714285Y-130121485D01*
X74714285Y-130121485D02*
X74666666Y-130311961D01*
X74666666Y-130311961D02*
X74571428Y-130407200D01*
X74571428Y-130407200D02*
X74476190Y-130454819D01*
X74476190Y-130454819D02*
X74285714Y-130454819D01*
X74285714Y-130454819D02*
X74190476Y-130407200D01*
X74190476Y-130407200D02*
X74095238Y-130311961D01*
X74095238Y-130311961D02*
X74047619Y-130121485D01*
X74047619Y-130121485D02*
X74047619Y-129788152D01*
X74047619Y-129788152D02*
X74095238Y-129597676D01*
X74095238Y-129597676D02*
X74190476Y-129502438D01*
X74190476Y-129502438D02*
X74285714Y-129454819D01*
X75714285Y-130454819D02*
X75380952Y-129978628D01*
X75142857Y-130454819D02*
X75142857Y-129454819D01*
X75142857Y-129454819D02*
X75523809Y-129454819D01*
X75523809Y-129454819D02*
X75619047Y-129502438D01*
X75619047Y-129502438D02*
X75666666Y-129550057D01*
X75666666Y-129550057D02*
X75714285Y-129645295D01*
X75714285Y-129645295D02*
X75714285Y-129788152D01*
X75714285Y-129788152D02*
X75666666Y-129883390D01*
X75666666Y-129883390D02*
X75619047Y-129931009D01*
X75619047Y-129931009D02*
X75523809Y-129978628D01*
X75523809Y-129978628D02*
X75142857Y-129978628D01*
X75904762Y-130550057D02*
X76666666Y-130550057D01*
X77476190Y-130359580D02*
X77428571Y-130407200D01*
X77428571Y-130407200D02*
X77285714Y-130454819D01*
X77285714Y-130454819D02*
X77190476Y-130454819D01*
X77190476Y-130454819D02*
X77047619Y-130407200D01*
X77047619Y-130407200D02*
X76952381Y-130311961D01*
X76952381Y-130311961D02*
X76904762Y-130216723D01*
X76904762Y-130216723D02*
X76857143Y-130026247D01*
X76857143Y-130026247D02*
X76857143Y-129883390D01*
X76857143Y-129883390D02*
X76904762Y-129692914D01*
X76904762Y-129692914D02*
X76952381Y-129597676D01*
X76952381Y-129597676D02*
X77047619Y-129502438D01*
X77047619Y-129502438D02*
X77190476Y-129454819D01*
X77190476Y-129454819D02*
X77285714Y-129454819D01*
X77285714Y-129454819D02*
X77428571Y-129502438D01*
X77428571Y-129502438D02*
X77476190Y-129550057D01*
X77904762Y-130454819D02*
X77904762Y-129454819D01*
X77904762Y-129931009D02*
X78476190Y-129931009D01*
X78476190Y-130454819D02*
X78476190Y-129454819D01*
X79476190Y-130454819D02*
X78904762Y-130454819D01*
X79190476Y-130454819D02*
X79190476Y-129454819D01*
X79190476Y-129454819D02*
X79095238Y-129597676D01*
X79095238Y-129597676D02*
X79000000Y-129692914D01*
X79000000Y-129692914D02*
X78904762Y-129740533D01*
X80095238Y-129454819D02*
X80190476Y-129454819D01*
X80190476Y-129454819D02*
X80285714Y-129502438D01*
X80285714Y-129502438D02*
X80333333Y-129550057D01*
X80333333Y-129550057D02*
X80380952Y-129645295D01*
X80380952Y-129645295D02*
X80428571Y-129835771D01*
X80428571Y-129835771D02*
X80428571Y-130073866D01*
X80428571Y-130073866D02*
X80380952Y-130264342D01*
X80380952Y-130264342D02*
X80333333Y-130359580D01*
X80333333Y-130359580D02*
X80285714Y-130407200D01*
X80285714Y-130407200D02*
X80190476Y-130454819D01*
X80190476Y-130454819D02*
X80095238Y-130454819D01*
X80095238Y-130454819D02*
X80000000Y-130407200D01*
X80000000Y-130407200D02*
X79952381Y-130359580D01*
X79952381Y-130359580D02*
X79904762Y-130264342D01*
X79904762Y-130264342D02*
X79857143Y-130073866D01*
X79857143Y-130073866D02*
X79857143Y-129835771D01*
X79857143Y-129835771D02*
X79904762Y-129645295D01*
X79904762Y-129645295D02*
X79952381Y-129550057D01*
X79952381Y-129550057D02*
X80000000Y-129502438D01*
X80000000Y-129502438D02*
X80095238Y-129454819D01*
X71357142Y-117454819D02*
X71357142Y-118169104D01*
X71357142Y-118169104D02*
X71309523Y-118311961D01*
X71309523Y-118311961D02*
X71214285Y-118407200D01*
X71214285Y-118407200D02*
X71071428Y-118454819D01*
X71071428Y-118454819D02*
X70976190Y-118454819D01*
X71595238Y-118550057D02*
X72357142Y-118550057D01*
X72547619Y-118407200D02*
X72690476Y-118454819D01*
X72690476Y-118454819D02*
X72928571Y-118454819D01*
X72928571Y-118454819D02*
X73023809Y-118407200D01*
X73023809Y-118407200D02*
X73071428Y-118359580D01*
X73071428Y-118359580D02*
X73119047Y-118264342D01*
X73119047Y-118264342D02*
X73119047Y-118169104D01*
X73119047Y-118169104D02*
X73071428Y-118073866D01*
X73071428Y-118073866D02*
X73023809Y-118026247D01*
X73023809Y-118026247D02*
X72928571Y-117978628D01*
X72928571Y-117978628D02*
X72738095Y-117931009D01*
X72738095Y-117931009D02*
X72642857Y-117883390D01*
X72642857Y-117883390D02*
X72595238Y-117835771D01*
X72595238Y-117835771D02*
X72547619Y-117740533D01*
X72547619Y-117740533D02*
X72547619Y-117645295D01*
X72547619Y-117645295D02*
X72595238Y-117550057D01*
X72595238Y-117550057D02*
X72642857Y-117502438D01*
X72642857Y-117502438D02*
X72738095Y-117454819D01*
X72738095Y-117454819D02*
X72976190Y-117454819D01*
X72976190Y-117454819D02*
X73119047Y-117502438D01*
X73452381Y-117454819D02*
X73690476Y-118454819D01*
X73690476Y-118454819D02*
X73880952Y-117740533D01*
X73880952Y-117740533D02*
X74071428Y-118454819D01*
X74071428Y-118454819D02*
X74309524Y-117454819D01*
X74452381Y-118550057D02*
X75214285Y-118550057D01*
X76023809Y-118359580D02*
X75976190Y-118407200D01*
X75976190Y-118407200D02*
X75833333Y-118454819D01*
X75833333Y-118454819D02*
X75738095Y-118454819D01*
X75738095Y-118454819D02*
X75595238Y-118407200D01*
X75595238Y-118407200D02*
X75500000Y-118311961D01*
X75500000Y-118311961D02*
X75452381Y-118216723D01*
X75452381Y-118216723D02*
X75404762Y-118026247D01*
X75404762Y-118026247D02*
X75404762Y-117883390D01*
X75404762Y-117883390D02*
X75452381Y-117692914D01*
X75452381Y-117692914D02*
X75500000Y-117597676D01*
X75500000Y-117597676D02*
X75595238Y-117502438D01*
X75595238Y-117502438D02*
X75738095Y-117454819D01*
X75738095Y-117454819D02*
X75833333Y-117454819D01*
X75833333Y-117454819D02*
X75976190Y-117502438D01*
X75976190Y-117502438D02*
X76023809Y-117550057D01*
X76452381Y-118454819D02*
X76452381Y-117454819D01*
X76452381Y-117931009D02*
X77023809Y-117931009D01*
X77023809Y-118454819D02*
X77023809Y-117454819D01*
X78023809Y-118454819D02*
X77452381Y-118454819D01*
X77738095Y-118454819D02*
X77738095Y-117454819D01*
X77738095Y-117454819D02*
X77642857Y-117597676D01*
X77642857Y-117597676D02*
X77547619Y-117692914D01*
X77547619Y-117692914D02*
X77452381Y-117740533D01*
X78642857Y-117454819D02*
X78738095Y-117454819D01*
X78738095Y-117454819D02*
X78833333Y-117502438D01*
X78833333Y-117502438D02*
X78880952Y-117550057D01*
X78880952Y-117550057D02*
X78928571Y-117645295D01*
X78928571Y-117645295D02*
X78976190Y-117835771D01*
X78976190Y-117835771D02*
X78976190Y-118073866D01*
X78976190Y-118073866D02*
X78928571Y-118264342D01*
X78928571Y-118264342D02*
X78880952Y-118359580D01*
X78880952Y-118359580D02*
X78833333Y-118407200D01*
X78833333Y-118407200D02*
X78738095Y-118454819D01*
X78738095Y-118454819D02*
X78642857Y-118454819D01*
X78642857Y-118454819D02*
X78547619Y-118407200D01*
X78547619Y-118407200D02*
X78500000Y-118359580D01*
X78500000Y-118359580D02*
X78452381Y-118264342D01*
X78452381Y-118264342D02*
X78404762Y-118073866D01*
X78404762Y-118073866D02*
X78404762Y-117835771D01*
X78404762Y-117835771D02*
X78452381Y-117645295D01*
X78452381Y-117645295D02*
X78500000Y-117550057D01*
X78500000Y-117550057D02*
X78547619Y-117502438D01*
X78547619Y-117502438D02*
X78642857Y-117454819D01*
X99190476Y-99454819D02*
X99190476Y-100169104D01*
X99190476Y-100169104D02*
X99142857Y-100311961D01*
X99142857Y-100311961D02*
X99047619Y-100407200D01*
X99047619Y-100407200D02*
X98904762Y-100454819D01*
X98904762Y-100454819D02*
X98809524Y-100454819D01*
X100190476Y-100454819D02*
X99619048Y-100454819D01*
X99904762Y-100454819D02*
X99904762Y-99454819D01*
X99904762Y-99454819D02*
X99809524Y-99597676D01*
X99809524Y-99597676D02*
X99714286Y-99692914D01*
X99714286Y-99692914D02*
X99619048Y-99740533D01*
X101095238Y-99454819D02*
X100619048Y-99454819D01*
X100619048Y-99454819D02*
X100571429Y-99931009D01*
X100571429Y-99931009D02*
X100619048Y-99883390D01*
X100619048Y-99883390D02*
X100714286Y-99835771D01*
X100714286Y-99835771D02*
X100952381Y-99835771D01*
X100952381Y-99835771D02*
X101047619Y-99883390D01*
X101047619Y-99883390D02*
X101095238Y-99931009D01*
X101095238Y-99931009D02*
X101142857Y-100026247D01*
X101142857Y-100026247D02*
X101142857Y-100264342D01*
X101142857Y-100264342D02*
X101095238Y-100359580D01*
X101095238Y-100359580D02*
X101047619Y-100407200D01*
X101047619Y-100407200D02*
X100952381Y-100454819D01*
X100952381Y-100454819D02*
X100714286Y-100454819D01*
X100714286Y-100454819D02*
X100619048Y-100407200D01*
X100619048Y-100407200D02*
X100571429Y-100359580D01*
X94904761Y-129454819D02*
X94904761Y-130169104D01*
X94904761Y-130169104D02*
X94857142Y-130311961D01*
X94857142Y-130311961D02*
X94761904Y-130407200D01*
X94761904Y-130407200D02*
X94619047Y-130454819D01*
X94619047Y-130454819D02*
X94523809Y-130454819D01*
X95142857Y-130550057D02*
X95904761Y-130550057D01*
X96142857Y-130454819D02*
X96142857Y-129454819D01*
X96142857Y-129454819D02*
X96476190Y-130169104D01*
X96476190Y-130169104D02*
X96809523Y-129454819D01*
X96809523Y-129454819D02*
X96809523Y-130454819D01*
X97476190Y-129454819D02*
X97666666Y-129454819D01*
X97666666Y-129454819D02*
X97761904Y-129502438D01*
X97761904Y-129502438D02*
X97857142Y-129597676D01*
X97857142Y-129597676D02*
X97904761Y-129788152D01*
X97904761Y-129788152D02*
X97904761Y-130121485D01*
X97904761Y-130121485D02*
X97857142Y-130311961D01*
X97857142Y-130311961D02*
X97761904Y-130407200D01*
X97761904Y-130407200D02*
X97666666Y-130454819D01*
X97666666Y-130454819D02*
X97476190Y-130454819D01*
X97476190Y-130454819D02*
X97380952Y-130407200D01*
X97380952Y-130407200D02*
X97285714Y-130311961D01*
X97285714Y-130311961D02*
X97238095Y-130121485D01*
X97238095Y-130121485D02*
X97238095Y-129788152D01*
X97238095Y-129788152D02*
X97285714Y-129597676D01*
X97285714Y-129597676D02*
X97380952Y-129502438D01*
X97380952Y-129502438D02*
X97476190Y-129454819D01*
X98190476Y-129454819D02*
X98761904Y-129454819D01*
X98476190Y-130454819D02*
X98476190Y-129454819D01*
X99285714Y-129454819D02*
X99476190Y-129454819D01*
X99476190Y-129454819D02*
X99571428Y-129502438D01*
X99571428Y-129502438D02*
X99666666Y-129597676D01*
X99666666Y-129597676D02*
X99714285Y-129788152D01*
X99714285Y-129788152D02*
X99714285Y-130121485D01*
X99714285Y-130121485D02*
X99666666Y-130311961D01*
X99666666Y-130311961D02*
X99571428Y-130407200D01*
X99571428Y-130407200D02*
X99476190Y-130454819D01*
X99476190Y-130454819D02*
X99285714Y-130454819D01*
X99285714Y-130454819D02*
X99190476Y-130407200D01*
X99190476Y-130407200D02*
X99095238Y-130311961D01*
X99095238Y-130311961D02*
X99047619Y-130121485D01*
X99047619Y-130121485D02*
X99047619Y-129788152D01*
X99047619Y-129788152D02*
X99095238Y-129597676D01*
X99095238Y-129597676D02*
X99190476Y-129502438D01*
X99190476Y-129502438D02*
X99285714Y-129454819D01*
X100714285Y-130454819D02*
X100380952Y-129978628D01*
X100142857Y-130454819D02*
X100142857Y-129454819D01*
X100142857Y-129454819D02*
X100523809Y-129454819D01*
X100523809Y-129454819D02*
X100619047Y-129502438D01*
X100619047Y-129502438D02*
X100666666Y-129550057D01*
X100666666Y-129550057D02*
X100714285Y-129645295D01*
X100714285Y-129645295D02*
X100714285Y-129788152D01*
X100714285Y-129788152D02*
X100666666Y-129883390D01*
X100666666Y-129883390D02*
X100619047Y-129931009D01*
X100619047Y-129931009D02*
X100523809Y-129978628D01*
X100523809Y-129978628D02*
X100142857Y-129978628D01*
X100904762Y-130550057D02*
X101666666Y-130550057D01*
X102476190Y-130359580D02*
X102428571Y-130407200D01*
X102428571Y-130407200D02*
X102285714Y-130454819D01*
X102285714Y-130454819D02*
X102190476Y-130454819D01*
X102190476Y-130454819D02*
X102047619Y-130407200D01*
X102047619Y-130407200D02*
X101952381Y-130311961D01*
X101952381Y-130311961D02*
X101904762Y-130216723D01*
X101904762Y-130216723D02*
X101857143Y-130026247D01*
X101857143Y-130026247D02*
X101857143Y-129883390D01*
X101857143Y-129883390D02*
X101904762Y-129692914D01*
X101904762Y-129692914D02*
X101952381Y-129597676D01*
X101952381Y-129597676D02*
X102047619Y-129502438D01*
X102047619Y-129502438D02*
X102190476Y-129454819D01*
X102190476Y-129454819D02*
X102285714Y-129454819D01*
X102285714Y-129454819D02*
X102428571Y-129502438D01*
X102428571Y-129502438D02*
X102476190Y-129550057D01*
X102904762Y-130454819D02*
X102904762Y-129454819D01*
X102904762Y-129931009D02*
X103476190Y-129931009D01*
X103476190Y-130454819D02*
X103476190Y-129454819D01*
X104476190Y-130454819D02*
X103904762Y-130454819D01*
X104190476Y-130454819D02*
X104190476Y-129454819D01*
X104190476Y-129454819D02*
X104095238Y-129597676D01*
X104095238Y-129597676D02*
X104000000Y-129692914D01*
X104000000Y-129692914D02*
X103904762Y-129740533D01*
X105428571Y-130454819D02*
X104857143Y-130454819D01*
X105142857Y-130454819D02*
X105142857Y-129454819D01*
X105142857Y-129454819D02*
X105047619Y-129597676D01*
X105047619Y-129597676D02*
X104952381Y-129692914D01*
X104952381Y-129692914D02*
X104857143Y-129740533D01*
X96357142Y-117454819D02*
X96357142Y-118169104D01*
X96357142Y-118169104D02*
X96309523Y-118311961D01*
X96309523Y-118311961D02*
X96214285Y-118407200D01*
X96214285Y-118407200D02*
X96071428Y-118454819D01*
X96071428Y-118454819D02*
X95976190Y-118454819D01*
X96595238Y-118550057D02*
X97357142Y-118550057D01*
X97547619Y-118407200D02*
X97690476Y-118454819D01*
X97690476Y-118454819D02*
X97928571Y-118454819D01*
X97928571Y-118454819D02*
X98023809Y-118407200D01*
X98023809Y-118407200D02*
X98071428Y-118359580D01*
X98071428Y-118359580D02*
X98119047Y-118264342D01*
X98119047Y-118264342D02*
X98119047Y-118169104D01*
X98119047Y-118169104D02*
X98071428Y-118073866D01*
X98071428Y-118073866D02*
X98023809Y-118026247D01*
X98023809Y-118026247D02*
X97928571Y-117978628D01*
X97928571Y-117978628D02*
X97738095Y-117931009D01*
X97738095Y-117931009D02*
X97642857Y-117883390D01*
X97642857Y-117883390D02*
X97595238Y-117835771D01*
X97595238Y-117835771D02*
X97547619Y-117740533D01*
X97547619Y-117740533D02*
X97547619Y-117645295D01*
X97547619Y-117645295D02*
X97595238Y-117550057D01*
X97595238Y-117550057D02*
X97642857Y-117502438D01*
X97642857Y-117502438D02*
X97738095Y-117454819D01*
X97738095Y-117454819D02*
X97976190Y-117454819D01*
X97976190Y-117454819D02*
X98119047Y-117502438D01*
X98452381Y-117454819D02*
X98690476Y-118454819D01*
X98690476Y-118454819D02*
X98880952Y-117740533D01*
X98880952Y-117740533D02*
X99071428Y-118454819D01*
X99071428Y-118454819D02*
X99309524Y-117454819D01*
X99452381Y-118550057D02*
X100214285Y-118550057D01*
X101023809Y-118359580D02*
X100976190Y-118407200D01*
X100976190Y-118407200D02*
X100833333Y-118454819D01*
X100833333Y-118454819D02*
X100738095Y-118454819D01*
X100738095Y-118454819D02*
X100595238Y-118407200D01*
X100595238Y-118407200D02*
X100500000Y-118311961D01*
X100500000Y-118311961D02*
X100452381Y-118216723D01*
X100452381Y-118216723D02*
X100404762Y-118026247D01*
X100404762Y-118026247D02*
X100404762Y-117883390D01*
X100404762Y-117883390D02*
X100452381Y-117692914D01*
X100452381Y-117692914D02*
X100500000Y-117597676D01*
X100500000Y-117597676D02*
X100595238Y-117502438D01*
X100595238Y-117502438D02*
X100738095Y-117454819D01*
X100738095Y-117454819D02*
X100833333Y-117454819D01*
X100833333Y-117454819D02*
X100976190Y-117502438D01*
X100976190Y-117502438D02*
X101023809Y-117550057D01*
X101452381Y-118454819D02*
X101452381Y-117454819D01*
X101452381Y-117931009D02*
X102023809Y-117931009D01*
X102023809Y-118454819D02*
X102023809Y-117454819D01*
X103023809Y-118454819D02*
X102452381Y-118454819D01*
X102738095Y-118454819D02*
X102738095Y-117454819D01*
X102738095Y-117454819D02*
X102642857Y-117597676D01*
X102642857Y-117597676D02*
X102547619Y-117692914D01*
X102547619Y-117692914D02*
X102452381Y-117740533D01*
X103976190Y-118454819D02*
X103404762Y-118454819D01*
X103690476Y-118454819D02*
X103690476Y-117454819D01*
X103690476Y-117454819D02*
X103595238Y-117597676D01*
X103595238Y-117597676D02*
X103500000Y-117692914D01*
X103500000Y-117692914D02*
X103404762Y-117740533D01*
X124190476Y-99454819D02*
X124190476Y-100169104D01*
X124190476Y-100169104D02*
X124142857Y-100311961D01*
X124142857Y-100311961D02*
X124047619Y-100407200D01*
X124047619Y-100407200D02*
X123904762Y-100454819D01*
X123904762Y-100454819D02*
X123809524Y-100454819D01*
X125190476Y-100454819D02*
X124619048Y-100454819D01*
X124904762Y-100454819D02*
X124904762Y-99454819D01*
X124904762Y-99454819D02*
X124809524Y-99597676D01*
X124809524Y-99597676D02*
X124714286Y-99692914D01*
X124714286Y-99692914D02*
X124619048Y-99740533D01*
X126047619Y-99454819D02*
X125857143Y-99454819D01*
X125857143Y-99454819D02*
X125761905Y-99502438D01*
X125761905Y-99502438D02*
X125714286Y-99550057D01*
X125714286Y-99550057D02*
X125619048Y-99692914D01*
X125619048Y-99692914D02*
X125571429Y-99883390D01*
X125571429Y-99883390D02*
X125571429Y-100264342D01*
X125571429Y-100264342D02*
X125619048Y-100359580D01*
X125619048Y-100359580D02*
X125666667Y-100407200D01*
X125666667Y-100407200D02*
X125761905Y-100454819D01*
X125761905Y-100454819D02*
X125952381Y-100454819D01*
X125952381Y-100454819D02*
X126047619Y-100407200D01*
X126047619Y-100407200D02*
X126095238Y-100359580D01*
X126095238Y-100359580D02*
X126142857Y-100264342D01*
X126142857Y-100264342D02*
X126142857Y-100026247D01*
X126142857Y-100026247D02*
X126095238Y-99931009D01*
X126095238Y-99931009D02*
X126047619Y-99883390D01*
X126047619Y-99883390D02*
X125952381Y-99835771D01*
X125952381Y-99835771D02*
X125761905Y-99835771D01*
X125761905Y-99835771D02*
X125666667Y-99883390D01*
X125666667Y-99883390D02*
X125619048Y-99931009D01*
X125619048Y-99931009D02*
X125571429Y-100026247D01*
X119904761Y-129454819D02*
X119904761Y-130169104D01*
X119904761Y-130169104D02*
X119857142Y-130311961D01*
X119857142Y-130311961D02*
X119761904Y-130407200D01*
X119761904Y-130407200D02*
X119619047Y-130454819D01*
X119619047Y-130454819D02*
X119523809Y-130454819D01*
X120142857Y-130550057D02*
X120904761Y-130550057D01*
X121142857Y-130454819D02*
X121142857Y-129454819D01*
X121142857Y-129454819D02*
X121476190Y-130169104D01*
X121476190Y-130169104D02*
X121809523Y-129454819D01*
X121809523Y-129454819D02*
X121809523Y-130454819D01*
X122476190Y-129454819D02*
X122666666Y-129454819D01*
X122666666Y-129454819D02*
X122761904Y-129502438D01*
X122761904Y-129502438D02*
X122857142Y-129597676D01*
X122857142Y-129597676D02*
X122904761Y-129788152D01*
X122904761Y-129788152D02*
X122904761Y-130121485D01*
X122904761Y-130121485D02*
X122857142Y-130311961D01*
X122857142Y-130311961D02*
X122761904Y-130407200D01*
X122761904Y-130407200D02*
X122666666Y-130454819D01*
X122666666Y-130454819D02*
X122476190Y-130454819D01*
X122476190Y-130454819D02*
X122380952Y-130407200D01*
X122380952Y-130407200D02*
X122285714Y-130311961D01*
X122285714Y-130311961D02*
X122238095Y-130121485D01*
X122238095Y-130121485D02*
X122238095Y-129788152D01*
X122238095Y-129788152D02*
X122285714Y-129597676D01*
X122285714Y-129597676D02*
X122380952Y-129502438D01*
X122380952Y-129502438D02*
X122476190Y-129454819D01*
X123190476Y-129454819D02*
X123761904Y-129454819D01*
X123476190Y-130454819D02*
X123476190Y-129454819D01*
X124285714Y-129454819D02*
X124476190Y-129454819D01*
X124476190Y-129454819D02*
X124571428Y-129502438D01*
X124571428Y-129502438D02*
X124666666Y-129597676D01*
X124666666Y-129597676D02*
X124714285Y-129788152D01*
X124714285Y-129788152D02*
X124714285Y-130121485D01*
X124714285Y-130121485D02*
X124666666Y-130311961D01*
X124666666Y-130311961D02*
X124571428Y-130407200D01*
X124571428Y-130407200D02*
X124476190Y-130454819D01*
X124476190Y-130454819D02*
X124285714Y-130454819D01*
X124285714Y-130454819D02*
X124190476Y-130407200D01*
X124190476Y-130407200D02*
X124095238Y-130311961D01*
X124095238Y-130311961D02*
X124047619Y-130121485D01*
X124047619Y-130121485D02*
X124047619Y-129788152D01*
X124047619Y-129788152D02*
X124095238Y-129597676D01*
X124095238Y-129597676D02*
X124190476Y-129502438D01*
X124190476Y-129502438D02*
X124285714Y-129454819D01*
X125714285Y-130454819D02*
X125380952Y-129978628D01*
X125142857Y-130454819D02*
X125142857Y-129454819D01*
X125142857Y-129454819D02*
X125523809Y-129454819D01*
X125523809Y-129454819D02*
X125619047Y-129502438D01*
X125619047Y-129502438D02*
X125666666Y-129550057D01*
X125666666Y-129550057D02*
X125714285Y-129645295D01*
X125714285Y-129645295D02*
X125714285Y-129788152D01*
X125714285Y-129788152D02*
X125666666Y-129883390D01*
X125666666Y-129883390D02*
X125619047Y-129931009D01*
X125619047Y-129931009D02*
X125523809Y-129978628D01*
X125523809Y-129978628D02*
X125142857Y-129978628D01*
X125904762Y-130550057D02*
X126666666Y-130550057D01*
X127476190Y-130359580D02*
X127428571Y-130407200D01*
X127428571Y-130407200D02*
X127285714Y-130454819D01*
X127285714Y-130454819D02*
X127190476Y-130454819D01*
X127190476Y-130454819D02*
X127047619Y-130407200D01*
X127047619Y-130407200D02*
X126952381Y-130311961D01*
X126952381Y-130311961D02*
X126904762Y-130216723D01*
X126904762Y-130216723D02*
X126857143Y-130026247D01*
X126857143Y-130026247D02*
X126857143Y-129883390D01*
X126857143Y-129883390D02*
X126904762Y-129692914D01*
X126904762Y-129692914D02*
X126952381Y-129597676D01*
X126952381Y-129597676D02*
X127047619Y-129502438D01*
X127047619Y-129502438D02*
X127190476Y-129454819D01*
X127190476Y-129454819D02*
X127285714Y-129454819D01*
X127285714Y-129454819D02*
X127428571Y-129502438D01*
X127428571Y-129502438D02*
X127476190Y-129550057D01*
X127904762Y-130454819D02*
X127904762Y-129454819D01*
X127904762Y-129931009D02*
X128476190Y-129931009D01*
X128476190Y-130454819D02*
X128476190Y-129454819D01*
X129476190Y-130454819D02*
X128904762Y-130454819D01*
X129190476Y-130454819D02*
X129190476Y-129454819D01*
X129190476Y-129454819D02*
X129095238Y-129597676D01*
X129095238Y-129597676D02*
X129000000Y-129692914D01*
X129000000Y-129692914D02*
X128904762Y-129740533D01*
X129857143Y-129550057D02*
X129904762Y-129502438D01*
X129904762Y-129502438D02*
X130000000Y-129454819D01*
X130000000Y-129454819D02*
X130238095Y-129454819D01*
X130238095Y-129454819D02*
X130333333Y-129502438D01*
X130333333Y-129502438D02*
X130380952Y-129550057D01*
X130380952Y-129550057D02*
X130428571Y-129645295D01*
X130428571Y-129645295D02*
X130428571Y-129740533D01*
X130428571Y-129740533D02*
X130380952Y-129883390D01*
X130380952Y-129883390D02*
X129809524Y-130454819D01*
X129809524Y-130454819D02*
X130428571Y-130454819D01*
X121357142Y-117454819D02*
X121357142Y-118169104D01*
X121357142Y-118169104D02*
X121309523Y-118311961D01*
X121309523Y-118311961D02*
X121214285Y-118407200D01*
X121214285Y-118407200D02*
X121071428Y-118454819D01*
X121071428Y-118454819D02*
X120976190Y-118454819D01*
X121595238Y-118550057D02*
X122357142Y-118550057D01*
X122547619Y-118407200D02*
X122690476Y-118454819D01*
X122690476Y-118454819D02*
X122928571Y-118454819D01*
X122928571Y-118454819D02*
X123023809Y-118407200D01*
X123023809Y-118407200D02*
X123071428Y-118359580D01*
X123071428Y-118359580D02*
X123119047Y-118264342D01*
X123119047Y-118264342D02*
X123119047Y-118169104D01*
X123119047Y-118169104D02*
X123071428Y-118073866D01*
X123071428Y-118073866D02*
X123023809Y-118026247D01*
X123023809Y-118026247D02*
X122928571Y-117978628D01*
X122928571Y-117978628D02*
X122738095Y-117931009D01*
X122738095Y-117931009D02*
X122642857Y-117883390D01*
X122642857Y-117883390D02*
X122595238Y-117835771D01*
X122595238Y-117835771D02*
X122547619Y-117740533D01*
X122547619Y-117740533D02*
X122547619Y-117645295D01*
X122547619Y-117645295D02*
X122595238Y-117550057D01*
X122595238Y-117550057D02*
X122642857Y-117502438D01*
X122642857Y-117502438D02*
X122738095Y-117454819D01*
X122738095Y-117454819D02*
X122976190Y-117454819D01*
X122976190Y-117454819D02*
X123119047Y-117502438D01*
X123452381Y-117454819D02*
X123690476Y-118454819D01*
X123690476Y-118454819D02*
X123880952Y-117740533D01*
X123880952Y-117740533D02*
X124071428Y-118454819D01*
X124071428Y-118454819D02*
X124309524Y-117454819D01*
X124452381Y-118550057D02*
X125214285Y-118550057D01*
X126023809Y-118359580D02*
X125976190Y-118407200D01*
X125976190Y-118407200D02*
X125833333Y-118454819D01*
X125833333Y-118454819D02*
X125738095Y-118454819D01*
X125738095Y-118454819D02*
X125595238Y-118407200D01*
X125595238Y-118407200D02*
X125500000Y-118311961D01*
X125500000Y-118311961D02*
X125452381Y-118216723D01*
X125452381Y-118216723D02*
X125404762Y-118026247D01*
X125404762Y-118026247D02*
X125404762Y-117883390D01*
X125404762Y-117883390D02*
X125452381Y-117692914D01*
X125452381Y-117692914D02*
X125500000Y-117597676D01*
X125500000Y-117597676D02*
X125595238Y-117502438D01*
X125595238Y-117502438D02*
X125738095Y-117454819D01*
X125738095Y-117454819D02*
X125833333Y-117454819D01*
X125833333Y-117454819D02*
X125976190Y-117502438D01*
X125976190Y-117502438D02*
X126023809Y-117550057D01*
X126452381Y-118454819D02*
X126452381Y-117454819D01*
X126452381Y-117931009D02*
X127023809Y-117931009D01*
X127023809Y-118454819D02*
X127023809Y-117454819D01*
X128023809Y-118454819D02*
X127452381Y-118454819D01*
X127738095Y-118454819D02*
X127738095Y-117454819D01*
X127738095Y-117454819D02*
X127642857Y-117597676D01*
X127642857Y-117597676D02*
X127547619Y-117692914D01*
X127547619Y-117692914D02*
X127452381Y-117740533D01*
X128404762Y-117550057D02*
X128452381Y-117502438D01*
X128452381Y-117502438D02*
X128547619Y-117454819D01*
X128547619Y-117454819D02*
X128785714Y-117454819D01*
X128785714Y-117454819D02*
X128880952Y-117502438D01*
X128880952Y-117502438D02*
X128928571Y-117550057D01*
X128928571Y-117550057D02*
X128976190Y-117645295D01*
X128976190Y-117645295D02*
X128976190Y-117740533D01*
X128976190Y-117740533D02*
X128928571Y-117883390D01*
X128928571Y-117883390D02*
X128357143Y-118454819D01*
X128357143Y-118454819D02*
X128976190Y-118454819D01*
X149190476Y-99454819D02*
X149190476Y-100169104D01*
X149190476Y-100169104D02*
X149142857Y-100311961D01*
X149142857Y-100311961D02*
X149047619Y-100407200D01*
X149047619Y-100407200D02*
X148904762Y-100454819D01*
X148904762Y-100454819D02*
X148809524Y-100454819D01*
X150190476Y-100454819D02*
X149619048Y-100454819D01*
X149904762Y-100454819D02*
X149904762Y-99454819D01*
X149904762Y-99454819D02*
X149809524Y-99597676D01*
X149809524Y-99597676D02*
X149714286Y-99692914D01*
X149714286Y-99692914D02*
X149619048Y-99740533D01*
X150523810Y-99454819D02*
X151190476Y-99454819D01*
X151190476Y-99454819D02*
X150761905Y-100454819D01*
X144904761Y-129454819D02*
X144904761Y-130169104D01*
X144904761Y-130169104D02*
X144857142Y-130311961D01*
X144857142Y-130311961D02*
X144761904Y-130407200D01*
X144761904Y-130407200D02*
X144619047Y-130454819D01*
X144619047Y-130454819D02*
X144523809Y-130454819D01*
X145142857Y-130550057D02*
X145904761Y-130550057D01*
X146142857Y-130454819D02*
X146142857Y-129454819D01*
X146142857Y-129454819D02*
X146476190Y-130169104D01*
X146476190Y-130169104D02*
X146809523Y-129454819D01*
X146809523Y-129454819D02*
X146809523Y-130454819D01*
X147476190Y-129454819D02*
X147666666Y-129454819D01*
X147666666Y-129454819D02*
X147761904Y-129502438D01*
X147761904Y-129502438D02*
X147857142Y-129597676D01*
X147857142Y-129597676D02*
X147904761Y-129788152D01*
X147904761Y-129788152D02*
X147904761Y-130121485D01*
X147904761Y-130121485D02*
X147857142Y-130311961D01*
X147857142Y-130311961D02*
X147761904Y-130407200D01*
X147761904Y-130407200D02*
X147666666Y-130454819D01*
X147666666Y-130454819D02*
X147476190Y-130454819D01*
X147476190Y-130454819D02*
X147380952Y-130407200D01*
X147380952Y-130407200D02*
X147285714Y-130311961D01*
X147285714Y-130311961D02*
X147238095Y-130121485D01*
X147238095Y-130121485D02*
X147238095Y-129788152D01*
X147238095Y-129788152D02*
X147285714Y-129597676D01*
X147285714Y-129597676D02*
X147380952Y-129502438D01*
X147380952Y-129502438D02*
X147476190Y-129454819D01*
X148190476Y-129454819D02*
X148761904Y-129454819D01*
X148476190Y-130454819D02*
X148476190Y-129454819D01*
X149285714Y-129454819D02*
X149476190Y-129454819D01*
X149476190Y-129454819D02*
X149571428Y-129502438D01*
X149571428Y-129502438D02*
X149666666Y-129597676D01*
X149666666Y-129597676D02*
X149714285Y-129788152D01*
X149714285Y-129788152D02*
X149714285Y-130121485D01*
X149714285Y-130121485D02*
X149666666Y-130311961D01*
X149666666Y-130311961D02*
X149571428Y-130407200D01*
X149571428Y-130407200D02*
X149476190Y-130454819D01*
X149476190Y-130454819D02*
X149285714Y-130454819D01*
X149285714Y-130454819D02*
X149190476Y-130407200D01*
X149190476Y-130407200D02*
X149095238Y-130311961D01*
X149095238Y-130311961D02*
X149047619Y-130121485D01*
X149047619Y-130121485D02*
X149047619Y-129788152D01*
X149047619Y-129788152D02*
X149095238Y-129597676D01*
X149095238Y-129597676D02*
X149190476Y-129502438D01*
X149190476Y-129502438D02*
X149285714Y-129454819D01*
X150714285Y-130454819D02*
X150380952Y-129978628D01*
X150142857Y-130454819D02*
X150142857Y-129454819D01*
X150142857Y-129454819D02*
X150523809Y-129454819D01*
X150523809Y-129454819D02*
X150619047Y-129502438D01*
X150619047Y-129502438D02*
X150666666Y-129550057D01*
X150666666Y-129550057D02*
X150714285Y-129645295D01*
X150714285Y-129645295D02*
X150714285Y-129788152D01*
X150714285Y-129788152D02*
X150666666Y-129883390D01*
X150666666Y-129883390D02*
X150619047Y-129931009D01*
X150619047Y-129931009D02*
X150523809Y-129978628D01*
X150523809Y-129978628D02*
X150142857Y-129978628D01*
X150904762Y-130550057D02*
X151666666Y-130550057D01*
X152476190Y-130359580D02*
X152428571Y-130407200D01*
X152428571Y-130407200D02*
X152285714Y-130454819D01*
X152285714Y-130454819D02*
X152190476Y-130454819D01*
X152190476Y-130454819D02*
X152047619Y-130407200D01*
X152047619Y-130407200D02*
X151952381Y-130311961D01*
X151952381Y-130311961D02*
X151904762Y-130216723D01*
X151904762Y-130216723D02*
X151857143Y-130026247D01*
X151857143Y-130026247D02*
X151857143Y-129883390D01*
X151857143Y-129883390D02*
X151904762Y-129692914D01*
X151904762Y-129692914D02*
X151952381Y-129597676D01*
X151952381Y-129597676D02*
X152047619Y-129502438D01*
X152047619Y-129502438D02*
X152190476Y-129454819D01*
X152190476Y-129454819D02*
X152285714Y-129454819D01*
X152285714Y-129454819D02*
X152428571Y-129502438D01*
X152428571Y-129502438D02*
X152476190Y-129550057D01*
X152904762Y-130454819D02*
X152904762Y-129454819D01*
X152904762Y-129931009D02*
X153476190Y-129931009D01*
X153476190Y-130454819D02*
X153476190Y-129454819D01*
X154476190Y-130454819D02*
X153904762Y-130454819D01*
X154190476Y-130454819D02*
X154190476Y-129454819D01*
X154190476Y-129454819D02*
X154095238Y-129597676D01*
X154095238Y-129597676D02*
X154000000Y-129692914D01*
X154000000Y-129692914D02*
X153904762Y-129740533D01*
X154809524Y-129454819D02*
X155428571Y-129454819D01*
X155428571Y-129454819D02*
X155095238Y-129835771D01*
X155095238Y-129835771D02*
X155238095Y-129835771D01*
X155238095Y-129835771D02*
X155333333Y-129883390D01*
X155333333Y-129883390D02*
X155380952Y-129931009D01*
X155380952Y-129931009D02*
X155428571Y-130026247D01*
X155428571Y-130026247D02*
X155428571Y-130264342D01*
X155428571Y-130264342D02*
X155380952Y-130359580D01*
X155380952Y-130359580D02*
X155333333Y-130407200D01*
X155333333Y-130407200D02*
X155238095Y-130454819D01*
X155238095Y-130454819D02*
X154952381Y-130454819D01*
X154952381Y-130454819D02*
X154857143Y-130407200D01*
X154857143Y-130407200D02*
X154809524Y-130359580D01*
X146357142Y-117454819D02*
X146357142Y-118169104D01*
X146357142Y-118169104D02*
X146309523Y-118311961D01*
X146309523Y-118311961D02*
X146214285Y-118407200D01*
X146214285Y-118407200D02*
X146071428Y-118454819D01*
X146071428Y-118454819D02*
X145976190Y-118454819D01*
X146595238Y-118550057D02*
X147357142Y-118550057D01*
X147547619Y-118407200D02*
X147690476Y-118454819D01*
X147690476Y-118454819D02*
X147928571Y-118454819D01*
X147928571Y-118454819D02*
X148023809Y-118407200D01*
X148023809Y-118407200D02*
X148071428Y-118359580D01*
X148071428Y-118359580D02*
X148119047Y-118264342D01*
X148119047Y-118264342D02*
X148119047Y-118169104D01*
X148119047Y-118169104D02*
X148071428Y-118073866D01*
X148071428Y-118073866D02*
X148023809Y-118026247D01*
X148023809Y-118026247D02*
X147928571Y-117978628D01*
X147928571Y-117978628D02*
X147738095Y-117931009D01*
X147738095Y-117931009D02*
X147642857Y-117883390D01*
X147642857Y-117883390D02*
X147595238Y-117835771D01*
X147595238Y-117835771D02*
X147547619Y-117740533D01*
X147547619Y-117740533D02*
X147547619Y-117645295D01*
X147547619Y-117645295D02*
X147595238Y-117550057D01*
X147595238Y-117550057D02*
X147642857Y-117502438D01*
X147642857Y-117502438D02*
X147738095Y-117454819D01*
X147738095Y-117454819D02*
X147976190Y-117454819D01*
X147976190Y-117454819D02*
X148119047Y-117502438D01*
X148452381Y-117454819D02*
X148690476Y-118454819D01*
X148690476Y-118454819D02*
X148880952Y-117740533D01*
X148880952Y-117740533D02*
X149071428Y-118454819D01*
X149071428Y-118454819D02*
X149309524Y-117454819D01*
X149452381Y-118550057D02*
X150214285Y-118550057D01*
X151023809Y-118359580D02*
X150976190Y-118407200D01*
X150976190Y-118407200D02*
X150833333Y-118454819D01*
X150833333Y-118454819D02*
X150738095Y-118454819D01*
X150738095Y-118454819D02*
X150595238Y-118407200D01*
X150595238Y-118407200D02*
X150500000Y-118311961D01*
X150500000Y-118311961D02*
X150452381Y-118216723D01*
X150452381Y-118216723D02*
X150404762Y-118026247D01*
X150404762Y-118026247D02*
X150404762Y-117883390D01*
X150404762Y-117883390D02*
X150452381Y-117692914D01*
X150452381Y-117692914D02*
X150500000Y-117597676D01*
X150500000Y-117597676D02*
X150595238Y-117502438D01*
X150595238Y-117502438D02*
X150738095Y-117454819D01*
X150738095Y-117454819D02*
X150833333Y-117454819D01*
X150833333Y-117454819D02*
X150976190Y-117502438D01*
X150976190Y-117502438D02*
X151023809Y-117550057D01*
X151452381Y-118454819D02*
X151452381Y-117454819D01*
X151452381Y-117931009D02*
X152023809Y-117931009D01*
X152023809Y-118454819D02*
X152023809Y-117454819D01*
X153023809Y-118454819D02*
X152452381Y-118454819D01*
X152738095Y-118454819D02*
X152738095Y-117454819D01*
X152738095Y-117454819D02*
X152642857Y-117597676D01*
X152642857Y-117597676D02*
X152547619Y-117692914D01*
X152547619Y-117692914D02*
X152452381Y-117740533D01*
X153357143Y-117454819D02*
X153976190Y-117454819D01*
X153976190Y-117454819D02*
X153642857Y-117835771D01*
X153642857Y-117835771D02*
X153785714Y-117835771D01*
X153785714Y-117835771D02*
X153880952Y-117883390D01*
X153880952Y-117883390D02*
X153928571Y-117931009D01*
X153928571Y-117931009D02*
X153976190Y-118026247D01*
X153976190Y-118026247D02*
X153976190Y-118264342D01*
X153976190Y-118264342D02*
X153928571Y-118359580D01*
X153928571Y-118359580D02*
X153880952Y-118407200D01*
X153880952Y-118407200D02*
X153785714Y-118454819D01*
X153785714Y-118454819D02*
X153500000Y-118454819D01*
X153500000Y-118454819D02*
X153404762Y-118407200D01*
X153404762Y-118407200D02*
X153357143Y-118359580D01*
X174190476Y-99454819D02*
X174190476Y-100169104D01*
X174190476Y-100169104D02*
X174142857Y-100311961D01*
X174142857Y-100311961D02*
X174047619Y-100407200D01*
X174047619Y-100407200D02*
X173904762Y-100454819D01*
X173904762Y-100454819D02*
X173809524Y-100454819D01*
X175190476Y-100454819D02*
X174619048Y-100454819D01*
X174904762Y-100454819D02*
X174904762Y-99454819D01*
X174904762Y-99454819D02*
X174809524Y-99597676D01*
X174809524Y-99597676D02*
X174714286Y-99692914D01*
X174714286Y-99692914D02*
X174619048Y-99740533D01*
X175761905Y-99883390D02*
X175666667Y-99835771D01*
X175666667Y-99835771D02*
X175619048Y-99788152D01*
X175619048Y-99788152D02*
X175571429Y-99692914D01*
X175571429Y-99692914D02*
X175571429Y-99645295D01*
X175571429Y-99645295D02*
X175619048Y-99550057D01*
X175619048Y-99550057D02*
X175666667Y-99502438D01*
X175666667Y-99502438D02*
X175761905Y-99454819D01*
X175761905Y-99454819D02*
X175952381Y-99454819D01*
X175952381Y-99454819D02*
X176047619Y-99502438D01*
X176047619Y-99502438D02*
X176095238Y-99550057D01*
X176095238Y-99550057D02*
X176142857Y-99645295D01*
X176142857Y-99645295D02*
X176142857Y-99692914D01*
X176142857Y-99692914D02*
X176095238Y-99788152D01*
X176095238Y-99788152D02*
X176047619Y-99835771D01*
X176047619Y-99835771D02*
X175952381Y-99883390D01*
X175952381Y-99883390D02*
X175761905Y-99883390D01*
X175761905Y-99883390D02*
X175666667Y-99931009D01*
X175666667Y-99931009D02*
X175619048Y-99978628D01*
X175619048Y-99978628D02*
X175571429Y-100073866D01*
X175571429Y-100073866D02*
X175571429Y-100264342D01*
X175571429Y-100264342D02*
X175619048Y-100359580D01*
X175619048Y-100359580D02*
X175666667Y-100407200D01*
X175666667Y-100407200D02*
X175761905Y-100454819D01*
X175761905Y-100454819D02*
X175952381Y-100454819D01*
X175952381Y-100454819D02*
X176047619Y-100407200D01*
X176047619Y-100407200D02*
X176095238Y-100359580D01*
X176095238Y-100359580D02*
X176142857Y-100264342D01*
X176142857Y-100264342D02*
X176142857Y-100073866D01*
X176142857Y-100073866D02*
X176095238Y-99978628D01*
X176095238Y-99978628D02*
X176047619Y-99931009D01*
X176047619Y-99931009D02*
X175952381Y-99883390D01*
X169904761Y-129454819D02*
X169904761Y-130169104D01*
X169904761Y-130169104D02*
X169857142Y-130311961D01*
X169857142Y-130311961D02*
X169761904Y-130407200D01*
X169761904Y-130407200D02*
X169619047Y-130454819D01*
X169619047Y-130454819D02*
X169523809Y-130454819D01*
X170142857Y-130550057D02*
X170904761Y-130550057D01*
X171142857Y-130454819D02*
X171142857Y-129454819D01*
X171142857Y-129454819D02*
X171476190Y-130169104D01*
X171476190Y-130169104D02*
X171809523Y-129454819D01*
X171809523Y-129454819D02*
X171809523Y-130454819D01*
X172476190Y-129454819D02*
X172666666Y-129454819D01*
X172666666Y-129454819D02*
X172761904Y-129502438D01*
X172761904Y-129502438D02*
X172857142Y-129597676D01*
X172857142Y-129597676D02*
X172904761Y-129788152D01*
X172904761Y-129788152D02*
X172904761Y-130121485D01*
X172904761Y-130121485D02*
X172857142Y-130311961D01*
X172857142Y-130311961D02*
X172761904Y-130407200D01*
X172761904Y-130407200D02*
X172666666Y-130454819D01*
X172666666Y-130454819D02*
X172476190Y-130454819D01*
X172476190Y-130454819D02*
X172380952Y-130407200D01*
X172380952Y-130407200D02*
X172285714Y-130311961D01*
X172285714Y-130311961D02*
X172238095Y-130121485D01*
X172238095Y-130121485D02*
X172238095Y-129788152D01*
X172238095Y-129788152D02*
X172285714Y-129597676D01*
X172285714Y-129597676D02*
X172380952Y-129502438D01*
X172380952Y-129502438D02*
X172476190Y-129454819D01*
X173190476Y-129454819D02*
X173761904Y-129454819D01*
X173476190Y-130454819D02*
X173476190Y-129454819D01*
X174285714Y-129454819D02*
X174476190Y-129454819D01*
X174476190Y-129454819D02*
X174571428Y-129502438D01*
X174571428Y-129502438D02*
X174666666Y-129597676D01*
X174666666Y-129597676D02*
X174714285Y-129788152D01*
X174714285Y-129788152D02*
X174714285Y-130121485D01*
X174714285Y-130121485D02*
X174666666Y-130311961D01*
X174666666Y-130311961D02*
X174571428Y-130407200D01*
X174571428Y-130407200D02*
X174476190Y-130454819D01*
X174476190Y-130454819D02*
X174285714Y-130454819D01*
X174285714Y-130454819D02*
X174190476Y-130407200D01*
X174190476Y-130407200D02*
X174095238Y-130311961D01*
X174095238Y-130311961D02*
X174047619Y-130121485D01*
X174047619Y-130121485D02*
X174047619Y-129788152D01*
X174047619Y-129788152D02*
X174095238Y-129597676D01*
X174095238Y-129597676D02*
X174190476Y-129502438D01*
X174190476Y-129502438D02*
X174285714Y-129454819D01*
X175714285Y-130454819D02*
X175380952Y-129978628D01*
X175142857Y-130454819D02*
X175142857Y-129454819D01*
X175142857Y-129454819D02*
X175523809Y-129454819D01*
X175523809Y-129454819D02*
X175619047Y-129502438D01*
X175619047Y-129502438D02*
X175666666Y-129550057D01*
X175666666Y-129550057D02*
X175714285Y-129645295D01*
X175714285Y-129645295D02*
X175714285Y-129788152D01*
X175714285Y-129788152D02*
X175666666Y-129883390D01*
X175666666Y-129883390D02*
X175619047Y-129931009D01*
X175619047Y-129931009D02*
X175523809Y-129978628D01*
X175523809Y-129978628D02*
X175142857Y-129978628D01*
X175904762Y-130550057D02*
X176666666Y-130550057D01*
X177476190Y-130359580D02*
X177428571Y-130407200D01*
X177428571Y-130407200D02*
X177285714Y-130454819D01*
X177285714Y-130454819D02*
X177190476Y-130454819D01*
X177190476Y-130454819D02*
X177047619Y-130407200D01*
X177047619Y-130407200D02*
X176952381Y-130311961D01*
X176952381Y-130311961D02*
X176904762Y-130216723D01*
X176904762Y-130216723D02*
X176857143Y-130026247D01*
X176857143Y-130026247D02*
X176857143Y-129883390D01*
X176857143Y-129883390D02*
X176904762Y-129692914D01*
X176904762Y-129692914D02*
X176952381Y-129597676D01*
X176952381Y-129597676D02*
X177047619Y-129502438D01*
X177047619Y-129502438D02*
X177190476Y-129454819D01*
X177190476Y-129454819D02*
X177285714Y-129454819D01*
X177285714Y-129454819D02*
X177428571Y-129502438D01*
X177428571Y-129502438D02*
X177476190Y-129550057D01*
X177904762Y-130454819D02*
X177904762Y-129454819D01*
X177904762Y-129931009D02*
X178476190Y-129931009D01*
X178476190Y-130454819D02*
X178476190Y-129454819D01*
X179476190Y-130454819D02*
X178904762Y-130454819D01*
X179190476Y-130454819D02*
X179190476Y-129454819D01*
X179190476Y-129454819D02*
X179095238Y-129597676D01*
X179095238Y-129597676D02*
X179000000Y-129692914D01*
X179000000Y-129692914D02*
X178904762Y-129740533D01*
X180333333Y-129788152D02*
X180333333Y-130454819D01*
X180095238Y-129407200D02*
X179857143Y-130121485D01*
X179857143Y-130121485D02*
X180476190Y-130121485D01*
X171357142Y-117454819D02*
X171357142Y-118169104D01*
X171357142Y-118169104D02*
X171309523Y-118311961D01*
X171309523Y-118311961D02*
X171214285Y-118407200D01*
X171214285Y-118407200D02*
X171071428Y-118454819D01*
X171071428Y-118454819D02*
X170976190Y-118454819D01*
X171595238Y-118550057D02*
X172357142Y-118550057D01*
X172547619Y-118407200D02*
X172690476Y-118454819D01*
X172690476Y-118454819D02*
X172928571Y-118454819D01*
X172928571Y-118454819D02*
X173023809Y-118407200D01*
X173023809Y-118407200D02*
X173071428Y-118359580D01*
X173071428Y-118359580D02*
X173119047Y-118264342D01*
X173119047Y-118264342D02*
X173119047Y-118169104D01*
X173119047Y-118169104D02*
X173071428Y-118073866D01*
X173071428Y-118073866D02*
X173023809Y-118026247D01*
X173023809Y-118026247D02*
X172928571Y-117978628D01*
X172928571Y-117978628D02*
X172738095Y-117931009D01*
X172738095Y-117931009D02*
X172642857Y-117883390D01*
X172642857Y-117883390D02*
X172595238Y-117835771D01*
X172595238Y-117835771D02*
X172547619Y-117740533D01*
X172547619Y-117740533D02*
X172547619Y-117645295D01*
X172547619Y-117645295D02*
X172595238Y-117550057D01*
X172595238Y-117550057D02*
X172642857Y-117502438D01*
X172642857Y-117502438D02*
X172738095Y-117454819D01*
X172738095Y-117454819D02*
X172976190Y-117454819D01*
X172976190Y-117454819D02*
X173119047Y-117502438D01*
X173452381Y-117454819D02*
X173690476Y-118454819D01*
X173690476Y-118454819D02*
X173880952Y-117740533D01*
X173880952Y-117740533D02*
X174071428Y-118454819D01*
X174071428Y-118454819D02*
X174309524Y-117454819D01*
X174452381Y-118550057D02*
X175214285Y-118550057D01*
X176023809Y-118359580D02*
X175976190Y-118407200D01*
X175976190Y-118407200D02*
X175833333Y-118454819D01*
X175833333Y-118454819D02*
X175738095Y-118454819D01*
X175738095Y-118454819D02*
X175595238Y-118407200D01*
X175595238Y-118407200D02*
X175500000Y-118311961D01*
X175500000Y-118311961D02*
X175452381Y-118216723D01*
X175452381Y-118216723D02*
X175404762Y-118026247D01*
X175404762Y-118026247D02*
X175404762Y-117883390D01*
X175404762Y-117883390D02*
X175452381Y-117692914D01*
X175452381Y-117692914D02*
X175500000Y-117597676D01*
X175500000Y-117597676D02*
X175595238Y-117502438D01*
X175595238Y-117502438D02*
X175738095Y-117454819D01*
X175738095Y-117454819D02*
X175833333Y-117454819D01*
X175833333Y-117454819D02*
X175976190Y-117502438D01*
X175976190Y-117502438D02*
X176023809Y-117550057D01*
X176452381Y-118454819D02*
X176452381Y-117454819D01*
X176452381Y-117931009D02*
X177023809Y-117931009D01*
X177023809Y-118454819D02*
X177023809Y-117454819D01*
X178023809Y-118454819D02*
X177452381Y-118454819D01*
X177738095Y-118454819D02*
X177738095Y-117454819D01*
X177738095Y-117454819D02*
X177642857Y-117597676D01*
X177642857Y-117597676D02*
X177547619Y-117692914D01*
X177547619Y-117692914D02*
X177452381Y-117740533D01*
X178880952Y-117788152D02*
X178880952Y-118454819D01*
X178642857Y-117407200D02*
X178404762Y-118121485D01*
X178404762Y-118121485D02*
X179023809Y-118121485D01*
M02*
